<svg width="12" height="13" viewBox="0 0 12 13" fill="none" xmlns="http://www.w3.org/2000/svg">
<path d="M5.90223 0.955306C5.92485 0.849966 6.07515 0.849966 6.09777 0.955306L7.04709 5.37614C7.05535 5.4146 7.0854 5.44465 7.12386 5.45291L11.5447 6.40223C11.65 6.42485 11.65 6.57515 11.5447 6.59777L7.12386 7.54709C7.0854 7.55535 7.05535 7.5854 7.04709 7.62386L6.09777 12.0447C6.07515 12.15 5.92485 12.15 5.90223 12.0447L4.95291 7.62386C4.94465 7.5854 4.9146 7.55535 4.87614 7.54709L0.455306 6.59777C0.349966 6.57515 0.349966 6.42485 0.455306 6.40223L4.87614 5.45291C4.9146 5.44465 4.94465 5.4146 4.95291 5.37614L5.90223 0.955306Z" fill="#F7F7F7"/>
</svg>
