<svg width="306" height="162" viewBox="0 0 306 162" fill="none" xmlns="http://www.w3.org/2000/svg">
<path d="M113.298 27.912C114.802 32.872 116.338 36.744 117.906 39.528C119.474 42.28 121.106 44.2 122.802 45.288C124.498 46.376 126.418 46.92 128.562 46.92L125.922 63C124.162 63 122.578 62.664 121.17 61.992C119.762 61.32 118.45 60.216 117.234 58.68C116.626 65.304 114.882 70.92 112.002 75.528C109.154 80.168 105.346 83.672 100.578 86.04C95.81 88.408 90.306 89.592 84.066 89.592C78.722 89.592 74.194 88.6 70.482 86.616C66.77 84.664 63.954 81.8 62.034 78.024C60.146 74.28 59.202 69.736 59.202 64.392C59.202 56.136 61.042 47.928 64.722 39.768H65.874C63.858 45.048 62.85 50.328 62.85 55.608C62.85 59.384 63.73 62.6 65.49 65.256C67.282 67.912 69.89 69.944 73.314 71.352C76.738 72.76 80.866 73.464 85.698 73.464C91.426 73.464 96.562 72.648 101.106 71.016C105.65 69.384 109.186 67.304 111.714 64.776C114.274 62.248 115.554 59.72 115.554 57.192C115.554 56.168 114.802 54.216 113.298 51.336C111.826 48.424 109.714 44.792 106.962 40.44C107.73 39.384 108.674 37.624 109.794 35.16C110.946 32.696 111.906 30.28 112.674 27.912H113.298ZM86.37 49.032C85.506 47.88 84.162 46.568 82.338 45.096C80.546 43.592 78.994 42.568 77.682 42.024V41.4L84.738 32.76C86.402 33.56 88.146 34.776 89.97 36.408C91.794 38.008 93.122 39.496 93.954 40.872L86.37 49.032ZM125.891 63C124.963 63 124.275 62.568 123.827 61.704C123.379 60.808 123.155 59.496 123.155 57.768C123.155 54.184 123.619 51.48 124.547 49.656C125.475 47.832 126.803 46.92 128.531 46.92H148.883L146.291 63H125.891ZM146.235 63C145.307 63 144.619 62.568 144.171 61.704C143.723 60.808 143.499 59.496 143.499 57.768C143.499 54.184 143.963 51.48 144.891 49.656C145.819 47.832 147.147 46.92 148.875 46.92H169.227L166.635 63H146.235ZM166.579 63C165.651 63 164.963 62.568 164.515 61.704C164.067 60.808 163.843 59.496 163.843 57.768C163.843 54.184 164.307 51.48 165.235 49.656C166.163 47.832 167.491 46.92 169.219 46.92H189.571L186.979 63H166.579ZM186.922 63C185.994 63 185.306 62.568 184.858 61.704C184.41 60.808 184.186 59.496 184.186 57.768C184.186 54.184 184.65 51.48 185.578 49.656C186.506 47.832 187.834 46.92 189.562 46.92H209.915L207.323 63H186.922ZM207.266 63C206.338 63 205.65 62.568 205.202 61.704C204.754 60.808 204.53 59.496 204.53 57.768C204.53 54.184 204.994 51.48 205.922 49.656C206.85 47.832 208.178 46.92 209.906 46.92H230.258L227.666 63H207.266ZM263.994 40.2C263.994 45.896 263.002 50.36 261.018 53.592C259.066 56.792 255.482 59.16 250.266 60.696C245.082 62.232 237.53 63 227.61 63C226.682 63 225.994 62.568 225.546 61.704C225.098 60.808 224.874 59.496 224.874 57.768C224.874 54.184 225.338 51.48 226.266 49.656C227.194 47.832 228.522 46.92 230.25 46.92C237.194 46.92 243.066 46.712 247.866 46.296C252.666 45.88 256.25 45.336 258.618 44.664C261.018 43.96 262.218 43.192 262.218 42.36C262.218 41.656 261.61 40.536 260.394 39C259.21 37.464 257.69 35.816 255.834 34.056C254.01 32.296 252.202 30.76 250.41 29.448C252.042 27.688 254.314 23.16 257.226 15.864H257.754C257.914 16.312 258.234 17.08 258.714 18.168C260.218 21.56 261.466 24.984 262.458 28.44C263.482 31.864 263.994 35.784 263.994 40.2ZM227.802 83.064C228.346 82.136 229.018 80.552 229.818 78.312C230.586 76.072 231.13 74.344 231.45 73.128C235.034 72.872 238.618 72.664 242.202 72.504C245.818 72.376 248.618 72.312 250.602 72.312C253.386 72.312 255.434 72.632 256.746 73.272C258.058 73.912 258.714 75.048 258.714 76.68C258.714 77.192 258.634 77.752 258.474 78.36C258.314 79 258.09 79.784 257.802 80.712C257.77 80.872 257.594 81.4 257.274 82.296C256.986 83.224 256.778 84.152 256.65 85.08H256.074C256.074 84.024 255.498 83.288 254.346 82.872C253.194 82.488 251.274 82.296 248.586 82.296C246.73 82.296 243.514 82.36 238.938 82.488C234.362 82.648 230.65 82.84 227.802 83.064ZM277.159 88.968C274.951 88.968 272.887 88.616 270.967 87.912C269.047 87.24 266.775 86.248 264.151 84.936C261.783 83.784 260.135 83.048 259.207 82.728V82.152C264.871 81 270.791 78.888 276.967 75.816C283.143 72.744 288.279 69.464 292.375 65.976C296.503 62.488 298.567 59.656 298.567 57.48C298.567 56.264 297.431 54.44 295.159 52.008C292.919 49.544 289.607 46.536 285.223 42.984C286.311 41.352 287.511 39.176 288.823 36.456C290.167 33.704 291.207 31.208 291.943 28.968H292.519L293.527 31.032C294.743 33.432 295.783 35.656 296.647 37.704C297.511 39.752 298.279 42.136 298.951 44.856C299.623 47.544 299.959 50.344 299.959 53.256C299.959 60.584 298.935 66.936 296.887 72.312C294.839 77.72 292.071 81.848 288.583 84.696C285.127 87.544 281.319 88.968 277.159 88.968ZM291.367 22.104C290.503 20.952 289.159 19.64 287.335 18.168C285.543 16.664 283.991 15.64 282.679 15.096V14.472L289.735 5.832C291.399 6.632 293.143 7.848 294.967 9.48C296.791 11.08 298.119 12.568 298.951 13.944L291.367 22.104Z" fill="#0A0A0A"/>
<path d="M227.724 124.602C228.828 124.602 229.77 124.956 230.55 125.664C231.342 126.36 231.936 127.338 232.332 128.598C232.74 129.846 232.944 131.292 232.944 132.936C232.944 135.588 232.5 137.49 231.612 138.642C230.724 139.782 229.554 140.352 228.102 140.352C227.046 140.352 226.05 140.274 225.114 140.118C224.178 139.962 223.188 139.758 222.144 139.506C221.808 139.434 221.496 139.368 221.208 139.308C220.92 139.248 220.71 139.218 220.578 139.218C219.966 139.218 219.456 139.5 219.048 140.064C218.652 140.616 218.454 141.348 218.454 142.26C218.454 148.404 218.532 152.346 218.688 154.086C218.388 154.386 218.064 154.794 217.716 155.31C217.368 155.826 217.086 156.294 216.87 156.714H216.672C216.708 156.342 216.726 155.82 216.726 155.148C216.726 154.284 216.696 152.97 216.636 151.206C216.528 147.81 216.474 145.098 216.474 143.07C216.474 141.066 216.678 139.338 217.086 137.886C217.494 136.434 218.04 135.306 218.724 134.502C219.408 133.698 220.176 133.218 221.028 133.062C221.748 130.206 222.654 128.082 223.746 126.69C224.85 125.298 226.176 124.602 227.724 124.602ZM230.424 134.304C231.096 134.304 231.582 134.226 231.882 134.07C232.194 133.914 232.35 133.68 232.35 133.368C232.35 132.828 232.146 132.204 231.738 131.496C231.342 130.788 230.736 130.182 229.92 129.678C229.104 129.162 228.108 128.904 226.932 128.904C224.484 128.904 222.69 130.29 221.55 133.062C222.642 133.434 224.016 133.734 225.672 133.962C227.34 134.19 228.924 134.304 230.424 134.304ZM240.801 141C239.169 141 237.873 140.754 236.913 140.262C235.965 139.758 235.251 138.918 234.771 137.742C234.303 136.554 234.033 134.91 233.961 132.81C233.841 128.982 233.709 126.03 233.565 123.954C233.433 121.866 233.283 120.258 233.115 119.13C232.947 118.002 232.701 116.748 232.377 115.368C233.013 114.732 233.691 113.94 234.411 112.992C235.131 112.044 235.755 111.144 236.283 110.292H236.499C236.499 110.94 236.529 111.762 236.589 112.758C236.673 114.75 236.715 116.418 236.715 117.762C236.715 118.938 236.679 120.894 236.607 123.63C236.535 126.534 236.499 128.73 236.499 130.218C236.499 131.862 236.913 133.068 237.741 133.836C238.569 134.592 239.919 134.97 241.791 134.97L240.801 141ZM249.401 118.212C250.769 118.212 251.933 118.668 252.893 119.58C253.853 120.492 254.585 121.854 255.089 123.666C255.605 125.466 255.863 127.686 255.863 130.326C255.863 132.858 255.395 134.904 254.459 136.464C253.535 138.024 252.065 139.17 250.049 139.902C248.033 140.634 245.363 141 242.039 141H240.833C240.137 141 239.789 140.346 239.789 139.038C239.789 137.706 239.969 136.698 240.329 136.014C240.689 135.318 241.181 134.97 241.805 134.97H243.011C245.867 134.97 248.207 134.784 250.031 134.412C251.855 134.04 253.169 133.59 253.973 133.062C254.777 132.534 255.179 132.024 255.179 131.532C255.203 131.292 255.215 130.932 255.215 130.452C255.215 129.144 255.017 127.932 254.621 126.816L254.423 126.87C254.291 128.526 253.679 129.828 252.587 130.776C251.507 131.712 250.043 132.18 248.195 132.18C246.575 132.18 245.339 131.742 244.487 130.866C243.635 129.99 243.209 128.784 243.209 127.248C243.209 125.604 243.449 124.098 243.929 122.73C244.421 121.35 245.135 120.252 246.071 119.436C247.007 118.62 248.117 118.212 249.401 118.212ZM248.789 127.302C250.877 127.302 252.731 126.918 254.351 126.15C253.787 124.95 253.001 124.014 251.993 123.342C250.997 122.67 249.869 122.334 248.609 122.334C247.793 122.334 247.025 122.496 246.305 122.82C245.597 123.144 245.027 123.54 244.595 124.008C244.175 124.464 243.965 124.89 243.965 125.286C243.965 125.538 244.121 125.82 244.433 126.132C244.757 126.444 245.279 126.72 245.999 126.96C246.719 127.188 247.649 127.302 248.789 127.302ZM254.675 110.508C254.471 110.856 254.219 111.45 253.919 112.29C253.631 113.13 253.427 113.778 253.307 114.234C251.963 114.33 250.613 114.408 249.257 114.468C247.913 114.516 246.869 114.54 246.125 114.54C245.081 114.54 244.313 114.42 243.821 114.18C243.329 113.94 243.083 113.514 243.083 112.902C243.083 112.71 243.113 112.5 243.173 112.272C243.233 112.032 243.317 111.738 243.425 111.39C243.437 111.33 243.497 111.132 243.605 110.796C243.725 110.448 243.809 110.1 243.857 109.752H244.073C244.073 110.148 244.289 110.424 244.721 110.58C245.153 110.724 245.873 110.796 246.881 110.796C247.577 110.796 248.783 110.772 250.499 110.724C252.215 110.664 253.607 110.592 254.675 110.508ZM257.638 150.738C256.81 150.738 256.036 150.606 255.316 150.342C254.596 150.09 253.744 149.718 252.76 149.226C251.872 148.794 251.254 148.518 250.906 148.398V148.182C253.03 147.75 255.25 146.958 257.566 145.806C259.882 144.654 261.808 143.424 263.344 142.116C264.892 140.808 265.666 139.746 265.666 138.93C265.666 138.474 265.24 137.79 264.388 136.878C263.548 135.954 262.306 134.826 260.662 133.494C261.07 132.882 261.52 132.066 262.012 131.046C262.516 130.014 262.906 129.078 263.182 128.238H263.398L263.776 129.012C264.232 129.912 264.622 130.746 264.946 131.514C265.27 132.282 265.558 133.176 265.81 134.196C266.062 135.204 266.188 136.254 266.188 137.346C266.188 140.094 265.804 142.476 265.036 144.492C264.268 146.52 263.23 148.068 261.922 149.136C260.626 150.204 259.198 150.738 257.638 150.738ZM285.333 116.448C285.333 120.792 284.493 124.38 282.813 127.212C284.061 129.084 284.685 130.932 284.685 132.756C284.685 134.628 284.379 136.2 283.767 137.472C283.155 138.732 282.291 139.674 281.175 140.298C280.071 140.91 278.769 141.216 277.269 141.216C276.285 141.216 275.415 141.108 274.659 140.892C273.903 140.664 273.249 140.388 272.697 140.064C272.145 139.728 271.467 139.266 270.663 138.678C270.075 138.246 269.595 137.904 269.223 137.652C268.851 137.4 268.443 137.154 267.999 136.914V136.68C271.035 135.54 273.543 134.274 275.523 132.882C277.503 131.478 279.021 129.918 280.077 128.202C278.697 127.014 277.017 125.88 275.037 124.8C273.069 123.72 270.777 122.748 268.161 121.884C268.341 121.296 268.491 120.546 268.611 119.634C268.743 118.722 268.809 117.84 268.809 116.988C268.809 116.58 268.791 116.19 268.755 115.818H268.971C274.695 119.226 278.823 122.4 281.355 125.34C281.775 124.008 281.985 122.556 281.985 120.984C281.985 120.204 281.931 119.196 281.823 117.96C281.715 116.712 281.571 115.662 281.391 114.81C281.979 114.306 282.615 113.622 283.299 112.758C283.983 111.882 284.517 111.06 284.901 110.292H285.117C285.117 110.604 285.141 111.276 285.189 112.308C285.285 113.796 285.333 115.176 285.333 116.448ZM284.073 133.584C284.073 133.224 283.839 132.654 283.371 131.874C282.903 131.094 282.219 130.254 281.319 129.354C279.447 131.574 276.801 133.398 273.381 134.826C274.341 135.066 275.475 135.186 276.783 135.186C278.295 135.186 279.603 135.114 280.707 134.97C281.811 134.814 282.645 134.616 283.209 134.376C283.785 134.136 284.073 133.872 284.073 133.584ZM269.889 110.238C270.525 110.238 271.281 110.178 272.157 110.058C273.045 109.938 273.681 109.812 274.065 109.68V109.896C273.873 110.184 273.687 110.556 273.507 111.012C273.327 111.456 273.183 111.882 273.075 112.29C271.791 112.53 270.543 112.926 269.331 113.478C268.119 114.03 267.147 114.636 266.415 115.296H266.199C266.391 114.648 266.691 114.066 267.099 113.55C267.519 113.022 268.017 112.584 268.593 112.236C267.885 112.044 267.345 111.726 266.973 111.282C266.601 110.826 266.415 110.292 266.415 109.68C266.415 108.84 266.583 108.03 266.919 107.25C267.267 106.458 267.723 105.822 268.287 105.342C268.863 104.85 269.469 104.604 270.105 104.604C270.741 104.604 271.257 104.832 271.653 105.288C272.049 105.732 272.247 106.284 272.247 106.944C272.247 107.184 272.229 107.4 272.193 107.592C272.157 107.784 272.133 107.904 272.121 107.952H271.905C271.797 107.076 271.191 106.638 270.087 106.638C269.487 106.638 268.953 106.758 268.485 106.998C268.017 107.226 267.651 107.502 267.387 107.826C267.135 108.15 267.009 108.432 267.009 108.672C267.009 108.924 267.117 109.17 267.333 109.41C267.549 109.65 267.873 109.848 268.305 110.004C268.749 110.16 269.277 110.238 269.889 110.238ZM294.238 141C292.606 141 291.31 140.754 290.35 140.262C289.402 139.758 288.688 138.918 288.208 137.742C287.74 136.554 287.47 134.91 287.398 132.81C287.278 128.982 287.146 126.03 287.002 123.954C286.87 121.866 286.72 120.258 286.552 119.13C286.384 118.002 286.138 116.748 285.814 115.368C286.45 114.732 287.128 113.94 287.848 112.992C288.568 112.044 289.192 111.144 289.72 110.292H289.936C289.936 110.94 289.966 111.762 290.026 112.758C290.11 114.75 290.152 116.418 290.152 117.762C290.152 118.938 290.116 120.894 290.044 123.63C289.972 126.534 289.936 128.73 289.936 130.218C289.936 131.862 290.35 133.068 291.178 133.836C292.006 134.592 293.356 134.97 295.228 134.97L294.238 141ZM303.756 132.45C303.756 134.406 303.45 136.008 302.838 137.256C302.226 138.504 301.224 139.44 299.832 140.064C298.44 140.688 296.58 141 294.252 141C293.904 141 293.646 140.838 293.478 140.514C293.31 140.178 293.226 139.686 293.226 139.038C293.226 137.694 293.4 136.68 293.748 135.996C294.096 135.312 294.594 134.97 295.242 134.97C296.598 134.97 297.876 134.892 299.076 134.736C300.288 134.568 301.26 134.358 301.992 134.106C302.724 133.842 303.09 133.56 303.09 133.26C303.09 132.996 302.862 132.576 302.406 132C301.962 131.424 301.392 130.806 300.696 130.146C300.012 129.486 299.334 128.91 298.662 128.418C299.022 128.022 299.436 127.326 299.904 126.33C300.372 125.334 300.804 124.332 301.2 123.324H301.416C301.476 123.492 301.596 123.78 301.776 124.188C302.34 125.46 302.808 126.744 303.18 128.04C303.564 129.324 303.756 130.794 303.756 132.45ZM297.258 150.162C296.874 149.706 296.352 149.202 295.692 148.65C295.044 148.098 294.48 147.72 294 147.516V147.3L296.646 144.06C297.27 144.348 297.924 144.798 298.608 145.41C299.292 146.022 299.79 146.586 300.102 147.102L297.258 150.162Z" fill="#0A0A0A"/>
</svg>
