<svg width="80" height="46" viewBox="0 0 80 46" fill="none" xmlns="http://www.w3.org/2000/svg">
<path d="M7.64081 1.32932H27.0829V1.49045L7.12075 30.0104H11.9613C16.0417 30.0104 18.602 28.9228 22.6424 23.0013H22.8824L20.2821 30.6549H0V30.4938L19.9221 1.97384H15.8417C11.2812 1.97384 9.16097 3.30316 5.64059 8.17733H5.40057L7.64081 1.32932Z" fill="#F7F7F7"/>
<path d="M45.4342 24.532L45.6342 24.6931C43.594 28.7214 41.3137 31.1383 38.7135 31.1383C35.8332 31.1383 35.9532 28.1574 36.3932 25.9822L36.9133 23.5652C34.8731 28.52 31.9928 31.1383 28.8724 31.1383C26.1121 31.1383 24.3919 28.7616 24.3919 24.6528C24.3919 17.3214 29.7125 9.06354 37.5933 9.06354C39.7536 9.06354 41.3937 9.66778 42.3538 10.836L45.2742 9.30524H45.5142L41.9938 25.7807C41.8738 26.3044 41.6338 27.4726 42.2338 27.4726C42.9139 27.4726 44.194 26.2239 45.4342 24.532ZM31.7927 28.1574C33.993 28.1574 37.2333 22.3165 38.4734 15.831C38.6334 14.9448 38.7535 14.0183 38.7535 13.1321C38.7535 11.1179 38.2334 9.6275 36.7933 9.6275C33.5529 9.6275 30.0325 17.9257 30.0325 24.1694C30.0325 26.8684 30.7126 28.1574 31.7927 28.1574Z" fill="#F7F7F7"/>
<path d="M54.9855 6.4049C53.1853 6.4049 51.7852 4.99502 51.7852 3.18231C51.7852 1.45017 53.1853 0 54.9855 0C56.7057 0 58.1058 1.45017 58.1058 3.18231C58.1058 4.99502 56.7057 6.4049 54.9855 6.4049ZM49.945 31.1383C47.0647 31.1383 47.1447 28.1574 47.6247 25.9822L50.065 14.4211C50.225 13.6557 50.425 12.6487 49.8249 12.6487C49.3849 12.6487 48.5048 13.4946 47.3047 14.9045L47.1047 14.7434C48.7448 11.3596 51.0651 9.06354 53.5453 9.06354C56.3456 9.06354 56.1856 11.843 55.6656 14.2197L53.2253 25.7807C53.1053 26.385 52.8653 27.4726 53.4653 27.4726C54.1054 27.4726 55.3855 26.2239 56.6657 24.532L56.8657 24.6931C54.8255 28.7214 52.5052 31.1383 49.945 31.1383Z" fill="#F7F7F7"/>
<path d="M79.8 24.532L80 24.6931C77.9598 28.7214 75.5595 31.1383 72.9593 31.1383C70.159 31.1383 70.239 28.3588 70.759 25.9822L72.9593 16.0727C73.3593 14.4211 73.7193 12.5681 72.5592 12.5681C70.199 12.5681 65.4785 20.9871 63.3982 30.6549H57.8777L61.278 14.4211C61.438 13.6557 61.6381 12.6487 61.038 12.6487C60.5979 12.6487 59.7179 13.4946 58.5177 14.9045L58.3177 14.7434C59.9579 11.3596 62.2781 9.06354 64.7184 9.06354C67.5587 9.06354 67.3987 11.843 66.8786 14.2197L65.1584 22.3165C67.7587 14.9448 71.3591 9.06354 75.9196 9.06354C79.1199 9.06354 79.4799 12.2056 78.5198 16.3949L76.3596 25.7807C76.1996 26.4655 75.9196 27.5532 76.5996 27.5532C77.1197 27.5532 78.3198 26.5058 79.8 24.532Z" fill="#F7F7F7"/>
<path d="M4.89743 39.444C4.71741 39.444 4.5674 39.293 4.5674 39.1117C4.5674 38.9304 4.71741 38.7794 4.89743 38.7794C5.07745 38.7794 5.22747 38.9304 5.22747 39.1117C5.22747 39.293 5.07745 39.444 4.89743 39.444ZM5.52 44.1873H4.48489V44.0967C4.79242 44.0967 4.81492 43.8399 4.81492 43.3565V41.1812C4.81492 40.6978 4.68741 40.5166 4.43238 40.4712V40.3806L5.12995 40.154H5.18996V43.3565C5.18996 43.8399 5.21246 44.0967 5.52 44.0967V44.1873Z" fill="#F7F7F7"/>
<path d="M11.0984 41.3172V43.3565C11.0984 43.8399 11.1209 44.0967 11.4285 44.0967V44.1873H10.3933V44.0967C10.7009 44.0967 10.7234 43.8399 10.7234 43.3565V41.4078C10.7234 40.7734 10.4683 40.4712 9.9583 40.4712C9.54575 40.4712 9.14821 40.7054 8.78067 41.0226V43.3565C8.78067 43.8399 8.80317 44.0967 9.11071 44.0967V44.1873H8.0756V44.0967C8.38313 44.0967 8.40563 43.8399 8.40563 43.3565V41.1812C8.40563 40.6978 8.27812 40.5166 8.02309 40.4712V40.3806L8.72067 40.154H8.78067V40.8413C9.18571 40.4259 9.66577 40.1389 10.1608 40.1389C10.7309 40.1389 11.0984 40.5468 11.0984 41.3172Z" fill="#F7F7F7"/>
<path d="M16.1343 43.5679L16.2468 43.6888C15.9017 44.0589 15.4817 44.2779 15.1217 44.2779C14.5966 44.2779 14.2966 43.9607 14.2966 43.3867V40.5014H13.9065V40.3202L14.0115 40.2749C14.2891 40.154 14.4466 39.8821 14.5816 39.3081H14.6716V40.2295H16.1868L16.0968 40.5014H14.6716V43.2658C14.6716 43.7341 14.8816 43.9909 15.3017 43.9909C15.6317 43.9909 15.9242 43.7643 16.1343 43.5679Z" fill="#F7F7F7"/>
<path d="M21.3096 43.2734L21.4446 43.3565C21.2046 43.7341 20.747 44.2779 19.9819 44.2779C19.0443 44.2779 18.4293 43.4169 18.4293 42.2839C18.4293 40.9848 19.2394 40.1389 20.1544 40.1389C20.882 40.1389 21.4896 40.6827 21.4371 41.6797H18.8718C18.8493 41.8232 18.8343 41.9743 18.8343 42.1253C18.8343 43.0921 19.2994 43.9607 20.1469 43.9607C20.6945 43.9607 21.0545 43.5906 21.3096 43.2734ZM20.1244 40.3353C19.5169 40.3353 19.0818 40.796 18.9168 41.4531H20.942C20.987 40.7507 20.7095 40.3353 20.1244 40.3353Z" fill="#F7F7F7"/>
<path d="M25.6852 40.1389C25.7602 40.1389 25.8652 40.154 25.9703 40.1993L25.8577 40.6676H25.7827C25.6477 40.5996 25.5502 40.577 25.4227 40.577C25.1377 40.577 24.9126 40.7583 24.6876 41.1283V43.3565C24.6876 43.8399 24.7101 44.0967 25.0177 44.0967V44.1873H23.9825V44.0967C24.2901 44.0967 24.3126 43.8399 24.3126 43.3565V41.1812C24.3126 40.6978 24.1851 40.5166 23.93 40.4712V40.3806L24.6276 40.154H24.6876V40.8791C24.9952 40.4335 25.3102 40.1389 25.6852 40.1389Z" fill="#F7F7F7"/>
<path d="M28.8209 39.444C28.6408 39.444 28.4908 39.293 28.4908 39.1117C28.4908 38.9304 28.6408 38.7794 28.8209 38.7794C29.0009 38.7794 29.1509 38.9304 29.1509 39.1117C29.1509 39.293 29.0009 39.444 28.8209 39.444ZM29.4434 44.1873H28.4083V44.0967C28.7158 44.0967 28.7383 43.8399 28.7383 43.3565V41.1812C28.7383 40.6978 28.6108 40.5166 28.3558 40.4712V40.3806L29.0534 40.154H29.1134V43.3565C29.1134 43.8399 29.1359 44.0967 29.4434 44.0967V44.1873Z" fill="#F7F7F7"/>
<path d="M33.7917 44.2779C32.7716 44.2779 32.0215 43.4924 32.0215 42.2235C32.0215 40.9697 32.8016 40.1389 33.8067 40.1389C34.8268 40.1389 35.5769 40.9244 35.5769 42.1933C35.5769 43.4471 34.7968 44.2779 33.7917 44.2779ZM33.8067 44.0816C34.6543 44.0816 35.1569 43.3791 35.1569 42.2084C35.1569 41.083 34.6393 40.3353 33.7917 40.3353C32.9441 40.3353 32.4416 41.0377 32.4416 42.2084C32.4416 43.3338 32.9591 44.0816 33.8067 44.0816Z" fill="#F7F7F7"/>
<path d="M39.8855 40.1389C39.9605 40.1389 40.0655 40.154 40.1705 40.1993L40.058 40.6676H39.983C39.848 40.5996 39.7504 40.577 39.6229 40.577C39.3379 40.577 39.1129 40.7583 38.8879 41.1283V43.3565C38.8879 43.8399 38.9104 44.0967 39.2179 44.0967V44.1873H38.1828V44.0967C38.4903 44.0967 38.5128 43.8399 38.5128 43.3565V41.1812C38.5128 40.6978 38.3853 40.5166 38.1303 40.4712V40.3806L38.8278 40.154H38.8879V40.8791C39.1954 40.4335 39.5104 40.1389 39.8855 40.1389Z" fill="#F7F7F7"/>
<path d="M49.5484 38.2809V43.3263C49.5484 43.8096 49.6609 43.9607 49.9309 44.0211V44.1118L49.3234 44.2779H49.2634L49.1884 43.5755C48.8658 43.9758 48.4533 44.2779 47.8907 44.2779C46.9906 44.2779 46.3756 43.4169 46.3756 42.2613C46.3756 40.9999 47.1557 40.1389 48.1458 40.1389C48.5358 40.1389 48.8958 40.2749 49.1734 40.4788V39.2477C49.1734 38.7643 49.0459 38.583 48.7908 38.5377V38.447L49.4884 38.2809H49.5484ZM48.0858 43.9758C48.5508 43.9758 48.9033 43.6888 49.1734 43.364V41.4078C49.1734 40.7431 48.7608 40.3353 48.1158 40.3353C47.2532 40.3353 46.7806 41.1359 46.7806 42.1253C46.7806 43.1072 47.2457 43.9758 48.0858 43.9758Z" fill="#F7F7F7"/>
<path d="M55.3371 43.2734L55.4721 43.3565C55.2321 43.7341 54.7745 44.2779 54.0094 44.2779C53.0718 44.2779 52.4568 43.4169 52.4568 42.2839C52.4568 40.9848 53.2669 40.1389 54.182 40.1389C54.9095 40.1389 55.5171 40.6827 55.4646 41.6797H52.8993C52.8768 41.8232 52.8618 41.9743 52.8618 42.1253C52.8618 43.0921 53.3269 43.9607 54.1745 43.9607C54.722 43.9607 55.0821 43.5906 55.3371 43.2734ZM54.152 40.3353C53.5444 40.3353 53.1094 40.796 52.9443 41.4531H54.9695C55.0146 40.7507 54.737 40.3353 54.152 40.3353Z" fill="#F7F7F7"/>
<path d="M59.1202 44.2779C58.7226 44.2779 58.3251 44.1646 58.0626 44.0211L58.0026 43.1676H58.0926C58.3476 43.855 58.6926 44.0816 59.1727 44.0816C59.6602 44.0816 60.0578 43.8247 60.0578 43.3414C60.0578 42.8429 59.6602 42.6314 59.2027 42.3821L58.9252 42.2311C58.4826 41.9894 58.1151 41.7552 58.1151 41.1812C58.1151 40.5392 58.5951 40.1389 59.2702 40.1389C59.5777 40.1389 59.9603 40.2144 60.2378 40.3806V41.083H60.1478C59.9903 40.5166 59.6302 40.3353 59.2402 40.3353C58.7751 40.3353 58.4676 40.6223 58.4676 41.0302C58.4676 41.4909 58.8426 41.7175 59.1277 41.8685L59.4052 42.0196C59.9753 42.3293 60.4103 42.5483 60.4103 43.1676C60.4103 43.8399 59.8928 44.2779 59.1202 44.2779Z" fill="#F7F7F7"/>
<path d="M63.3831 39.444C63.2031 39.444 63.0531 39.293 63.0531 39.1117C63.0531 38.9304 63.2031 38.7794 63.3831 38.7794C63.5631 38.7794 63.7131 38.9304 63.7131 39.1117C63.7131 39.293 63.5631 39.444 63.3831 39.444ZM64.0057 44.1873H62.9705V44.0967C63.2781 44.0967 63.3006 43.8399 63.3006 43.3565V41.1812C63.3006 40.6978 63.1731 40.5166 62.918 40.4712V40.3806L63.6156 40.154H63.6756V43.3565C63.6756 43.8399 63.6981 44.0967 64.0057 44.0967V44.1873Z" fill="#F7F7F7"/>
<path d="M67.3413 43.4169H68.759C69.5316 43.4169 69.9666 43.7115 69.9666 44.3459C69.9666 45.3882 68.864 46 67.9639 46C67.1313 46 66.5537 45.5091 66.5537 44.8066C66.5537 44.5045 66.6663 44.2326 66.9363 43.9758L67.0113 43.9078H67.1913C66.9738 44.0967 66.8763 44.3535 66.8763 44.6329C66.8763 45.29 67.3863 45.713 68.2039 45.713C68.954 45.713 69.6666 45.2145 69.6666 44.5952C69.6666 44.1193 69.374 43.8248 68.774 43.8248H67.2288C66.8538 43.8248 66.6888 43.6284 66.6888 43.4018C66.6888 43.1223 66.8838 42.9259 67.3263 42.6767C66.9063 42.4652 66.6288 42.0423 66.6288 41.4833C66.6288 40.6676 67.2213 40.1389 67.9939 40.1389C68.2489 40.1389 68.489 40.1993 68.684 40.3051L69.9816 40.1842L69.8466 40.5619L68.939 40.4863C69.1865 40.7129 69.3365 41.0528 69.3365 41.4682C69.3365 42.2839 68.759 42.8202 67.9789 42.8202C67.8139 42.8202 67.6639 42.7976 67.5214 42.7522C67.2063 42.9713 67.0938 43.0846 67.0938 43.213C67.0938 43.3338 67.1763 43.4169 67.3413 43.4169ZM67.9864 40.3353C67.4013 40.3353 67.0488 40.7507 67.0488 41.4758C67.0488 42.2009 67.3938 42.6238 67.9864 42.6238C68.5715 42.6238 68.9165 42.2009 68.9165 41.4758C68.9165 40.7507 68.5715 40.3353 67.9864 40.3353Z" fill="#F7F7F7"/>
<path d="M75.3723 41.3172V43.3565C75.3723 43.8399 75.3948 44.0967 75.7023 44.0967V44.1873H74.6672V44.0967C74.9747 44.0967 74.9972 43.8399 74.9972 43.3565V41.4078C74.9972 40.7734 74.7422 40.4712 74.2322 40.4712C73.8196 40.4712 73.4221 40.7054 73.0545 41.0226V43.3565C73.0545 43.8399 73.077 44.0967 73.3846 44.0967V44.1873H72.3495V44.0967C72.657 44.0967 72.6795 43.8399 72.6795 43.3565V41.1812C72.6795 40.6978 72.552 40.5166 72.297 40.4712V40.3806L72.9945 40.154H73.0545V40.8413C73.4596 40.4259 73.9396 40.1389 74.4347 40.1389C75.0047 40.1389 75.3723 40.5468 75.3723 41.3172Z" fill="#F7F7F7"/>
</svg>
