<svg width="205" height="144" viewBox="0 0 205 144" fill="none" xmlns="http://www.w3.org/2000/svg">
<path d="M18.44 11.112H67.496L67.112 12.456L22.472 78.312H29.384C38.984 78.312 45.992 76.2 56.648 61.224H57.8L51.08 81H0.296L0.68 79.656L45.32 13.8H40.232C28.904 13.8 23.432 16.68 14.312 28.776H13.16L18.44 11.112ZM107.261 71.4C108.605 71.4 110.717 68.904 112.829 65.448L114.365 66.408C109.373 76.2 103.709 82.152 96.413 82.152C88.157 82.152 88.061 74.568 89.213 68.808C84.797 77.544 79.133 82.152 72.413 82.152C65.405 82.152 60.989 76.104 60.989 65.832C60.989 48.168 73.661 29.544 93.437 29.544C99.101 29.544 103.325 31.08 105.821 33.768L112.925 30.12H114.845L106.685 68.136C106.397 69.384 105.917 71.4 107.261 71.4ZM81.245 72.936C85.181 72.936 91.325 59.304 93.821 45.768C94.301 43.176 94.589 40.584 94.589 38.376C94.589 34.344 93.533 32.04 91.229 32.04C85.469 32.04 78.269 51.144 78.269 64.968C78.269 70.824 79.517 72.936 81.245 72.936ZM139.042 24.36C133.858 24.36 129.73 20.232 129.73 15.048C129.73 10.056 133.858 5.92799 139.042 5.92799C144.034 5.92799 148.162 10.056 148.162 15.048C148.162 20.232 144.034 24.36 139.042 24.36ZM126.37 82.152C118.018 82.152 118.018 74.088 119.266 68.328L124.546 43.56C124.834 42.12 125.314 40.296 124.162 40.296C123.106 40.296 121.666 42.024 119.938 44.712L118.402 43.752C122.05 35.688 128.098 29.544 135.394 29.544C143.842 29.544 143.17 37.608 141.922 43.368L136.642 68.136C136.354 69.48 135.874 71.4 137.218 71.4C138.562 71.4 140.386 69.288 142.786 65.448L144.322 66.408C139.33 76.2 133.666 82.152 126.37 82.152ZM201.401 65.448L202.937 66.408C197.945 76.2 192.281 82.152 184.505 82.152C176.249 82.152 176.633 73.896 177.881 68.328L182.969 45.48C183.449 43.272 184.217 40.296 182.681 40.296C178.937 40.296 168.569 58.92 163.865 81H146.585L154.457 43.56C154.745 42.12 155.225 40.296 154.073 40.296C153.017 40.296 151.577 42.024 149.849 44.712L148.313 43.752C151.961 35.688 158.009 29.544 165.305 29.544C173.753 29.544 173.081 37.608 171.833 43.368L169.529 54.216C175.001 40.296 182.201 29.544 193.337 29.544C200.729 29.544 202.649 36.264 200.345 46.248L195.257 68.136C194.969 69.48 194.489 71.4 195.929 71.4C197.177 71.4 199.001 69.288 201.401 65.448Z" fill="#0A0A0A"/>
<path d="M12.992 111.328C11.372 111.328 10.112 110.068 10.112 108.448C10.112 106.9 11.372 105.604 12.992 105.604C14.54 105.604 15.8 106.9 15.8 108.448C15.8 110.068 14.54 111.328 12.992 111.328ZM8.456 133.432C5.864 133.432 5.936 130.768 6.368 128.824L8.564 118.492C8.708 117.808 8.888 116.908 8.348 116.908C7.952 116.908 7.16 117.664 6.08 118.924L5.9 118.78C7.376 115.756 9.464 113.704 11.696 113.704C14.216 113.704 14.072 116.188 13.604 118.312L11.408 128.644C11.3 129.184 11.084 130.156 11.624 130.156C12.2 130.156 13.352 129.04 14.504 127.528L14.684 127.672C12.848 131.272 10.76 133.432 8.456 133.432ZM35.3227 127.528L35.5027 127.672C33.6667 131.272 31.5067 133.432 29.1667 133.432C26.6467 133.432 26.7187 130.948 27.1867 128.824L29.1667 119.968C29.5267 118.492 29.8507 116.836 28.8067 116.836C26.6827 116.836 22.4347 124.36 20.5627 133H15.5947L18.6547 118.492C18.7987 117.808 18.9787 116.908 18.4387 116.908C18.0427 116.908 17.2507 117.664 16.1707 118.924L15.9907 118.78C17.4667 115.756 19.5547 113.704 21.7507 113.704C24.3067 113.704 24.1627 116.188 23.6947 118.312L22.1467 125.548C24.4867 118.96 27.7267 113.704 31.8307 113.704C34.7107 113.704 35.0347 116.512 34.1707 120.256L32.2267 128.644C32.0827 129.256 31.8307 130.228 32.4427 130.228C32.9107 130.228 33.9907 129.292 35.3227 127.528ZM62.6391 127.528L62.8191 127.672C60.9831 131.272 58.8231 133.432 56.4831 133.432C53.9631 133.432 54.0351 130.948 54.5031 128.824L56.4831 119.968C56.8431 118.492 57.1671 116.836 56.1231 116.836C53.9991 116.836 49.7511 124.36 47.8791 133H42.9111L45.9711 118.492C46.1151 117.808 46.2951 116.908 45.7551 116.908C45.3591 116.908 44.5671 117.664 43.4871 118.924L43.3071 118.78C44.7831 115.756 46.8711 113.704 49.0671 113.704C51.6231 113.704 51.4791 116.188 51.0111 118.312L49.4631 125.548C51.8031 118.96 55.0431 113.704 59.1471 113.704C62.0271 113.704 62.3511 116.512 61.4871 120.256L59.5431 128.644C59.3991 129.256 59.1471 130.228 59.7591 130.228C60.2271 130.228 61.3071 129.292 62.6391 127.528ZM83.4156 127.528L83.5956 127.672C81.7236 131.272 79.6716 133.432 77.3316 133.432C74.8116 133.432 74.8116 130.948 75.2796 128.824L76.8996 121.408C74.5236 128.104 71.2476 133.432 67.1076 133.432C64.2276 133.432 63.9396 130.624 64.8036 126.88L66.7476 118.492C66.8556 117.88 67.1076 116.908 66.5316 116.908C66.1356 116.908 65.3076 117.664 64.2636 118.924L64.0836 118.78C65.5596 115.756 67.6116 113.704 69.8076 113.704C72.3276 113.704 72.2556 116.188 71.7876 118.312L69.7716 127.168C69.4476 128.644 69.1236 130.3 70.1676 130.3C72.3276 130.3 76.5396 122.524 78.3396 114.532L83.1636 114.064H83.3796L80.2836 128.644C80.1756 129.328 79.9596 130.228 80.4996 130.228C81.0396 130.228 82.0476 129.292 83.4156 127.528ZM115.171 127.528L115.351 127.672C113.479 131.272 111.355 133.432 109.015 133.432C106.495 133.432 106.531 130.948 107.035 128.824L109.015 119.968C109.375 118.492 109.699 116.836 108.655 116.836C106.531 116.836 102.283 124.36 100.411 133H95.4433L98.1433 119.968C98.4673 118.492 98.8273 116.836 97.7833 116.836C95.6593 116.836 91.4113 124.36 89.5393 133H84.5713L87.6313 118.492C87.7753 117.808 87.9553 116.908 87.4153 116.908C87.0193 116.908 86.2273 117.664 85.1473 118.924L84.9673 118.78C86.4433 115.756 88.5312 113.704 90.7273 113.704C93.2832 113.704 93.1393 116.188 92.6713 118.312L91.1233 125.512C93.4273 118.924 96.7753 113.704 100.807 113.704C103.687 113.704 103.939 116.512 103.147 120.256L102.103 125.152C104.407 118.708 107.719 113.704 111.715 113.704C114.559 113.704 114.883 116.512 114.019 120.256L112.075 128.644C111.931 129.256 111.715 130.228 112.255 130.228C112.759 130.228 113.839 129.292 115.171 127.528ZM130.107 113.704C132.699 113.704 134.211 115.828 134.211 119.5C134.211 126.052 129.423 133.432 122.331 133.432C118.731 133.432 116.607 131.596 116.607 128.104C116.607 127.24 116.751 126.376 116.931 125.44L120.279 109.636C120.747 107.404 120.387 106.648 119.163 106.252L119.199 106.036L126.147 104.848H126.291L123.015 120.472C124.815 116.044 127.407 113.704 130.107 113.704ZM123.051 132.928C126.003 132.928 129.171 125.512 129.171 119.932C129.171 117.52 128.559 116.368 127.551 116.368C125.607 116.368 122.691 121.588 121.575 127.384C121.395 128.176 121.323 129.004 121.323 129.796C121.323 131.596 121.755 132.928 123.051 132.928ZM151.29 116.872C151.29 120.076 147.114 121.732 140.31 123.64C140.202 124.432 140.13 125.224 140.13 125.98C140.13 129.4 141.318 130.876 143.19 130.876C145.134 130.876 147.186 129.4 149.058 127.168L149.274 127.312C146.538 131.74 143.73 133.468 140.742 133.468C137.358 133.468 135.018 131.38 135.018 127.096C135.018 121.912 138.474 113.704 146.466 113.704C149.598 113.704 151.29 114.892 151.29 116.872ZM145.926 114.244C143.73 114.244 141.21 118.492 140.418 123.064C145.278 121.156 147.294 118.888 147.294 116.224C147.294 115.108 146.898 114.244 145.926 114.244ZM165.522 113.704C166.026 113.704 166.602 113.74 167.142 113.992L165.09 118.672H164.874C164.442 118.456 164.082 118.384 163.65 118.384C159.942 118.384 157.818 124.936 156.09 133H151.122L154.182 118.492C154.326 117.772 154.506 116.908 154.002 116.908C153.57 116.908 152.778 117.664 151.698 118.924L151.518 118.78C152.994 115.756 155.082 113.704 157.278 113.704C159.834 113.704 159.654 116.188 159.186 118.312L157.926 124.216C159.69 118.42 162.102 113.704 165.522 113.704ZM169.853 133.432C167.801 133.432 165.677 132.784 164.381 131.56L165.497 127.852H165.713C166.541 130.552 168.917 132.748 171.221 132.748C172.697 132.748 173.813 131.596 173.813 130.048C173.813 128.392 172.481 127.204 170.717 125.728L169.709 124.9C168.413 123.892 167.117 122.668 167.117 120.04C167.117 116.44 169.781 113.704 173.669 113.704C175.361 113.704 177.125 114.28 178.709 115L177.917 118.564H177.701C176.837 116.476 174.749 114.388 172.769 114.388C171.293 114.388 170.321 115.576 170.321 116.944C170.321 118.6 171.617 119.68 172.733 120.616L173.741 121.444C175.505 122.848 177.053 124.18 177.053 126.988C177.053 130.768 174.101 133.432 169.853 133.432Z" fill="#0A0A0A"/>
</svg>
