<svg id="Layer_1" data-name="Layer 1" xmlns="http://www.w3.org/2000/svg" viewBox="0 0 500 500"><defs><style>.cls-1{fill:#fff;}</style></defs><path class="cls-1" d="M129.15,218.17c-2.38-7.84-7.51-12.7-15.52-14.52-1.13-.25-2.25-.57-3.38-.86H82.86c-3,.2-6.1.56-9.15.56-2.27,0-3,.77-3.17,3.1-1.41,17.71-3,35.4-4.51,53.1-.45,5.22-.88,10.45-1.31,15.56.39.21.52.34.66.34,12,0,23.91.38,35.84-.15s20.48-6.59,25-18c2.87-7.2,4-14.67,4.47-22.31A46.55,46.55,0,0,0,129.15,218.17Zm-17.6,31.49c-2.26,6.72-6.73,10.64-14.08,10.76-3.93.06-7.86.21-11.79.27-1,0-2-.16-3.15-.27,1.24-14.21,2.48-28.19,3.74-42.55,5.44,0,10.55-.27,15.63.07,7.56.49,11.5,4.6,12.07,12.19A49.06,49.06,0,0,1,111.55,249.66Z"/><path class="cls-1" d="M400.76,228.77c-7.07-.26-14.14-.65-21.21-.72-6.9-.08-13.85-.27-20.52,2.15-6.49,2.36-11.28,6.49-12.63,13.43a94.3,94.3,0,0,0-1.89,16.55c-.1,7.83,3.82,12.39,11.43,14.33a47.45,47.45,0,0,0,27.32-.93c.57,6.47-2.77,10.83-9.1,11.28-5.16.36-10.36.29-15.54.18-3.66-.07-7.31-.51-11.15-.8-.36,4.15-.7,8-1,11.94l9.33,1h18.89c1.76-.31,3.53-.61,5.29-.93,11.4-2,16.86-7.86,18-19.4,1.27-13.15,2.42-26.3,3.61-39.45.25-2.79.44-5.58.67-8.46A14.35,14.35,0,0,0,400.76,228.77Zm-15.31,26c-.17,1.54-.35,3.08-.56,4.61a1.74,1.74,0,0,1-.05.22c0,.07,0,.14-.07.22a2.46,2.46,0,0,1-.24.45,5.07,5.07,0,0,1-2.53,2.06,31.55,31.55,0,0,1-17.42.47,7,7,0,0,1-3.08-1.59,4.43,4.43,0,0,1-.78-1c-.07-.13-.13-.26-.19-.4a6.82,6.82,0,0,1-.42-2.77,49.4,49.4,0,0,1,.4-5.14c.06-.43.12-.86.19-1.28.2-1.28.44-2.55.74-3.8a6.3,6.3,0,0,1,1.92-3.25,9.21,9.21,0,0,1,3.93-2c6.32-1.67,12.71-1.57,19.5-.88C386.33,245.51,386,250.19,385.45,254.82Z"/><path class="cls-1" d="M462.46,239.14v10.39c-.45,4-1,7.92-1.36,11.89s-.78,8.14-1,12.22c-.09,1.72-.71,2.28-2.44,2.23-4.22-.11-8.44,0-12.95,0,.51-6.14,1-12,1.48-17.85.26-3.21.6-6.42.73-9.64.18-4.8-1.6-7.26-6.37-7.63a109.09,109.09,0,0,0-14.11.3c-.44,0-1.1,1.3-1.18,2-1,10.09-1.94,20.19-2.77,30.3-.15,1.84-.74,2.41-2.53,2.37-4.06-.11-8.12,0-12.44,0,.41-5.06.78-9.91,1.21-14.75.88-9.94,1.77-19.89,2.74-29.83.07-.68.85-1.81,1.36-1.85,11.52-.89,23-2.25,34.61-1,4.2.45,8.33,1.53,11.29,4.74C460.31,234.73,461.23,237.07,462.46,239.14Z"/><path class="cls-1" d="M60.25,203.28c-2,24.17-4.08,48-6.14,72.22H37.54v-3.78c.43-3.81,1-7.61,1.3-11.43q2.43-27.5,4.74-55c.13-1.47.52-2.06,2.09-2C50.44,203.33,55.21,203.28,60.25,203.28Z"/><path class="cls-1" d="M178.22,213.26c-.5,5.36-1,10.58-1.48,15.88a52.36,52.36,0,0,0-28.08.79,17,17,0,0,0-11.84,11.5,56.54,56.54,0,0,0-2.56,20.47c.27,7.24,4,11.86,10.91,13.94a31.71,31.71,0,0,0,5.3,1.07c11.5,1.32,22.91.16,34.33-1.1,2-.23,2.7-1,2.86-3,1.14-14,2.4-27.88,3.62-41.82.51-5.85,1-11.7,1.52-17.71ZM174.07,263a2.47,2.47,0,0,1-1.67,1.62c-2.64.44-5.31.62-9,1-2.34-.32-5.71-.61-9-1.29s-4.84-2.26-4.76-5.51a70.51,70.51,0,0,1,1.45-12.1c.5-2.47,2.44-4.12,4.91-5,6.19-2.27,12.52-1.92,18.87-1a2,2,0,0,1,1.08,1.59C175.39,249.21,174.79,256.11,174.07,263Z"/><path class="cls-1" d="M256.14,240.25c-.33-5.75-4-9.76-9.63-11.07a77.79,77.79,0,0,0-35.78.23c-6.21,1.44-11.19,5.28-12.92,11.6a58.86,58.86,0,0,0-2.22,21.24c.74,7.71,5.07,12.68,12.66,14,13.81,2.36,27.59,1.36,41.31-.89.54-.09,1.37-.72,1.42-1.17.41-3.32.65-6.65,1-10.16-2.51.49-4.65,1-6.82,1.33a92.93,92.93,0,0,1-28,.84,8.78,8.78,0,0,1-5.09-2.51c-1-1.13-.93-3.3-.94-5,0-.26,2.1-.79,3.22-.79,12.82-.06,25.64,0,38.46,0h3.39C256.21,251.68,256.47,246,256.14,240.25Zm-14.77,6.13c0,.37-2.1.79-3.24.8-7.77.07-15.54,0-23.31,0H211.9c.28-4.56,1.83-6.88,5.64-7.87a36.4,36.4,0,0,1,8.12-1.09,50.68,50.68,0,0,1,9.86.53,9.27,9.27,0,0,1,5.16,2.76C241.6,242.6,241.5,244.75,241.37,246.38Z"/><path class="cls-1" d="M317.09,260.19c-.31,7.27-4.28,12.8-11.27,14.93a52.69,52.69,0,0,1-11.32,2.12,141.49,141.49,0,0,1-32.69-1.7,6.76,6.76,0,0,1-.83-.32c.3-3.71.6-7.45.92-11.37a84.7,84.7,0,0,0,9.62,1.42c8,.28,16,.32,24,.27a7.28,7.28,0,0,0,4.11-1.46,3.88,3.88,0,0,0,1.25-3.2,3.75,3.75,0,0,0-2.52-2.28,35.14,35.14,0,0,0-6.34-.3c-5.74-.09-11.49.09-17.21-.28-7-.44-11.19-4-12.14-9.75-1.23-7.42,2-14.33,8-17.06,4.59-2.07,9.48-2.73,14.45-3.12a147.08,147.08,0,0,1,29.44.85c.69.09,1.37.27,2.29.46-.37,3.83-.71,7.42-1.07,11.2-3.6-.42-7-.84-10.43-1.2a74.76,74.76,0,0,0-22.79.61,6.54,6.54,0,0,0-3,1.22c-.77.72-1.66,2.12-1.42,2.88a3.65,3.65,0,0,0,2.66,2c3.75.3,7.53.17,11.29.32,4.94.18,10,.06,14.8.82C314.3,248.41,317.41,252.74,317.09,260.19Z"/><path class="cls-1" d="M340,229.56c-1.3,15.35-2.59,30.63-3.89,46h-14.3c1.35-15.41,2.67-30.63,4-46Z"/><path class="cls-1" d="M341.52,212.37c-.34,3.9-.62,7.68-1,11.45a1.68,1.68,0,0,1-1.26,1c-4.21.07-8.43,0-13,0,.35-4.35.67-8.37,1-12.49Z"/><path class="cls-1" d="M360.11,257.05a6.82,6.82,0,0,0,.42,2.77,6.65,6.65,0,0,1-.42-2.77,49.4,49.4,0,0,1,.4-5.14A49.4,49.4,0,0,0,360.11,257.05Z"/><path class="cls-1" d="M360.72,260.22a4.43,4.43,0,0,0,.78,1A4.23,4.23,0,0,1,360.72,260.22Z"/><path class="cls-1" d="M363.36,243.58a6.3,6.3,0,0,0-1.92,3.25c-.3,1.25-.54,2.52-.74,3.8.19-1.28.44-2.55.74-3.8A6.24,6.24,0,0,1,363.36,243.58Z"/></svg>