<svg id="Layer_1" data-name="Layer 1" xmlns="http://www.w3.org/2000/svg" viewBox="0 0 500 500"><defs><style>.cls-1{fill:#fff;}</style></defs><path class="cls-1" d="M127.1,189.52a12.45,12.45,0,0,1,12.69-11.24,8.75,8.75,0,0,1,8.41,10.92c-1.28,5.85-6.43,10.24-12,10.27C130.22,199.47,126.52,195.43,127.1,189.52Z"/><path class="cls-1" d="M300.24,188.56a12.86,12.86,0,0,1,12.66-11.88c5.3.06,8.62,3.44,8.65,8.71a12.27,12.27,0,0,1-12.67,12.45A8.63,8.63,0,0,1,300.24,188.56Z"/><path class="cls-1" d="M473.17,242.49a8.9,8.9,0,0,0-4.16-3.18c-1.66-.58-2,1.37-2.85,2.33-7.54,8.82-16.79,15-28.14,17.7a23.3,23.3,0,0,1-14.06-.55c-2.76-1.05-5.12-2.77-6.08-6,1.39-.41,2.56-.79,3.72-1.11a63,63,0,0,0,23.17-11.55c4.92-4,9-8.61,10.68-15,2.53-9.63-3-17.2-12.95-17.63-10.65-.5-19.67,3.26-27.39,10.39A49.12,49.12,0,0,0,400,244.73c-.26,1.34-.38,2.65-1.43,3.72-4.16,4.34-8.44,8.5-14.08,10.92a15,15,0,0,1-3.44,1.16c-3.05.47-4.33-.76-4.22-3.81A16.47,16.47,0,0,1,378,252q16.84-50.42,33.64-100.87c.55-1.63,1.54-3.2,1.14-5.21a87.54,87.54,0,0,0-11-.14c-3.9,0-3.93-.88-5.58,4.13q-10.4,31.31-20.9,62.6c-.41,1.16-.47,2.56-1.75,3.64-2.91-4.89-6.89-7.48-12.37-7.92a29.43,29.43,0,0,0-18.88,5.1,48.27,48.27,0,0,0-21.05,29.91,18.67,18.67,0,0,1-6.46,10.39,45.84,45.84,0,0,1-7.91,5.71,15.28,15.28,0,0,1-5.74,2c-2.64.26-4.1-1.28-3.78-3.93a17.76,17.76,0,0,1,.81-3.15q4.81-14.31,9.64-28.57c1.42-4.25,2.91-8.47,4.25-12.75.7-2.24.35-2.65-2-2.74-3.11-.09-6.26,0-9.37,0-3.58.06-3.61.06-4.8,3.64-2.94,8.73-5.85,17.52-8.79,26.25a12.72,12.72,0,0,1-1.84,4.08,61,61,0,0,1-8.84,9.54c-2.33,1.89-4.49,4.22-8,5.12,1.52-5.26.67-10-1-14.66-.81-2.27-1.86-4.52-2.82-6.76A70,70,0,0,1,260,223.92c-1.25-6.23-.67-12.11,3.26-17.9-3.26,0-5.82.15-8.38,0s-3.9.73-5.18,2.94c-6.23,10.68-12.95,21-19.88,31.29a58.2,58.2,0,0,1-9.6,11.06A58.8,58.8,0,0,1,202.28,262s-.06,0-.06-.06c1.19-1.89,1.89-3.09,2.68-4.25a46.3,46.3,0,0,0,7.59-18.31c1.14-6.89,1.2-13.82-2.35-20.22-2.77-5-6.76-8.36-12.61-9.32C190.7,208.67,185,211,179.75,215c-1,.79-1.69,2-3.08,2.51-.21-1.34.46-2.27.7-3.29.52-2.33.4-2.56-2.07-2.62-3.11-.06-6.23,0-9.37,0-3.64.05-3.67.05-4.86,3.52q-4.32,13-8.62,25.9a15.79,15.79,0,0,1-2.73,5.41,74.07,74.07,0,0,1-13.27,12.61,22.13,22.13,0,0,1-7.69,3.63c-3.43.79-5.26-1-4.6-4.51a26.16,26.16,0,0,1,1.11-3.49q6.42-19.34,12.89-38.65c.41-1.25,1.17-2.47.76-4.05-3.61-.58-7.28-.2-10.91-.23-4.31,0-4.34,0-5.71,4.11q-6.9,20.69-13.76,41.35c-.09.35-.18.73-.24,1.08a32.8,32.8,0,0,0-1.28,9.31c.38,6.78,4.48,10.33,11.24,9.66a32.13,32.13,0,0,0,12.6-4.13,72.92,72.92,0,0,0,12.66-9.4c.55.09.76.52,1,1q-8.69,27.58-17.43,55.21a9.41,9.41,0,0,0,1.36.32c3.52,0,7.08,0,10.6,0s3.58,0,4.68-3.46q7.56-23.4,15.14-46.8c.29-1,.2-2.21,1.54-2.8,2.56,6.23,7.59,8.94,14,9.52a34.37,34.37,0,0,0,7.71-.23c13.1-1.66,24.71-6.9,35.42-14.44l3.2-2.12c1.31,2.09,2.39,4,3.64,5.76a23,23,0,0,0,16.06,10.1,36.32,36.32,0,0,0,11.35-.12c9.81-1.68,18-6.49,25.5-12.83,1-.82,1.69-2.07,3.2-2.21,0,2-.06,3.72,0,5.47.26,6.81,4.42,10.36,11.26,9.6a31.53,31.53,0,0,0,11.56-3.69,67.12,67.12,0,0,0,14.35-10.66c.84-.75,1.45-1.89,2.79-2.12a49.76,49.76,0,0,0,2,5.38c3.46,7.13,9.08,10.95,17.2,10.66,6.78-.24,12.13-3.44,16.7-8.21,1-1,1.6-2.48,3.18-2.94a33.55,33.55,0,0,0,.64,4.19,8.14,8.14,0,0,0,6.57,6.43,14.46,14.46,0,0,0,5.24.15c6.67-1,12.28-4.14,17.61-8A117.86,117.86,0,0,0,400,257.85a1.91,1.91,0,0,1,.41.29,7.48,7.48,0,0,1,.52,1.11c3.93,10.48,11.85,15.05,22.67,15.28,8.7.17,16.48-2.85,23.9-7,5.41-3.06,10.13-7.08,14.87-11v0c.06,0,.09-.09.14-.12,1.28-1.4,2.65-2.74,3.88-4.16,2.09-2.51,4.13-5,6.16-7.57C473,244,473.79,243.33,473.17,242.49ZM417,240.6c2.12-8.27,6.14-15.34,13.09-20.52a12.83,12.83,0,0,1,5.56-2.39,4.69,4.69,0,0,1,5.71,4.31,13.22,13.22,0,0,1-2.25,8.53c-2.93,4.8-7.33,7.94-12.31,10.27a32.4,32.4,0,0,1-9.43,3.17A3.56,3.56,0,0,1,417,240.6Zm-80,11.67a32.2,32.2,0,0,1,0-4.05c.56-10.33,4-19.32,12.55-25.79a16.84,16.84,0,0,1,10.27-3.37,10.14,10.14,0,0,1,9.84,6.58,5.21,5.21,0,0,1,.17,3.92c-2.27,6.55-4.25,13.19-6.69,19.68-2,5.38-9.9,11.93-16.45,11.58C341.25,260.53,337.61,257.59,336.91,252.27Zm-85.53,1.31c-1.49,5-5,7.71-10,8.23-4.88.53-9.1-.93-12.16-5-1.11-1.46-1.46-2.83-.12-4.4,5.82-6.84,10.36-14.61,15.46-22a4.44,4.44,0,0,1,2.27-2.16c.75,5.91,3.26,11,4.74,16.48A15.94,15.94,0,0,1,251.38,253.58ZM166,258.06a7.16,7.16,0,0,1-1-7.22c2.21-5.68,3.87-11.55,6-17.29,2.39-6.6,7.31-10.71,13.91-12.54,6.26-1.75,11.27,1.8,12.63,8.09,1.81,8.24-3.6,25-13.62,30.76a16.49,16.49,0,0,1-9.31,2.5A9,9,0,0,1,166,258.06ZM79.64,226c-5.53-4.8-11.38-9.22-17.12-13.79-4.86-3.9-9.78-7.83-13.35-13-3-4.31-5.19-8.88-4.52-14.38,1.17-9.51,6.23-16.35,14.41-21,10.51-5.94,22-7.45,33.85-6.64a20,20,0,0,1,8.82,2.94c4.62,2.86,7.27,6.81,6.92,12.46-.32,4.83-2.41,8.82-5.47,12.43-5.47,6.4-12.63,10.15-20.37,13-5.62,2.06-5.47,2-3.93,7.91.61,2.36,1.66,2.22,3.46,1.81a66.7,66.7,0,0,0,27.27-13.19,40.91,40.91,0,0,0,11.79-14.9c5.5-12.13,1.54-23.05-10.48-28.81a28.58,28.58,0,0,0-5.73-2.12A68.28,68.28,0,0,0,83,147.09a77.52,77.52,0,0,0-30.32,8.58c-10,5.3-18.16,12.49-22.91,22.91-4.16,9.13-4.39,18.45.24,27.53a50.54,50.54,0,0,0,11.61,14.55c7,6.29,14.84,11.44,22.17,17.26,4.57,3.64,9.17,7.3,11.73,12.77,2.1,4.43,1.4,8.44-2,12a13.51,13.51,0,0,1-5.38,3.61,29.92,29.92,0,0,1-20.34.12c-8.94-3.11-9.23-13.79-3.35-17.87,2.27-1.57,2.09-3.14,1.08-5.15a14.8,14.8,0,0,1-.85-1.86c-.67-2-1.89-2.42-3.78-1.49-7.92,3.9-14.35,8.88-14.12,18.86v0a.16.16,0,0,1-.06.12v0h.06c.12,4.27,2,7.71,4.86,10.74A24.24,24.24,0,0,0,42,276.1a45.58,45.58,0,0,0,22.9,1.51c12.31-2.27,21.92-8.11,26.49-20.37a4.38,4.38,0,0,0,.23-.58c2.41-8.15.84-15.57-4.28-22.23A58.92,58.92,0,0,0,79.64,226Z"/><path class="cls-1" d="M127.1,189.52a12.45,12.45,0,0,1,12.69-11.24,8.75,8.75,0,0,1,8.41,10.92c-1.28,5.85-6.43,10.24-12,10.27C130.22,199.47,126.52,195.43,127.1,189.52Z"/><path class="cls-1" d="M87.32,234.43c5.12,6.66,6.69,14.08,4.28,22.23a4.38,4.38,0,0,1-.23.58,2.32,2.32,0,0,1-.3-.26.25.25,0,0,1,0-.12,4.81,4.81,0,0,1-.33-3.05c2.13-11.26-4-19-11.4-26-7-6.64-15-12.14-22.38-18.34a48.46,48.46,0,0,1-7.72-7.83c-9.34-12.19-7.59-27.06,4.78-36.2,12.22-9,26.36-11.7,41.06-9.28,15.08,2.5,19.65,17.28,9.72,29.1-5.79,6.9-13.3,11.06-21.56,14.17-1.2.44-2.74.53-3.23,2.13a3,3,0,0,0,3.66,4.07c14.21-3.75,26.43-10.59,34.58-23.37a26.57,26.57,0,0,0,3.55-9.05c1.54-7.68-1.43-14.58-8-19-7.36-5-15.77-6.17-24.15-6-14.44.2-28.32,3.32-40.69,11.38-6.46,4.22-12.05,9.4-15.89,16.09-6.49,11.35-6.66,22.68.79,33.79,4.27,6.44,10,11.38,16,16.07,6.64,5.18,13.71,9.81,19.91,15.54A30.39,30.39,0,0,1,76.2,249c3.15,5.79,2.27,11-2.53,15.45-6.81,6.23-22.55,7-29.86,1.34a11.81,11.81,0,0,1-2.39-16.07c.7-1,1.63-1.8,2.3-2.85,1-1.48.5-2.88-.4-4.16-1.08-1.48-2.45-.9-3.64-.23-5.42,3-9.84,6.78-11.15,13.24C28.3,257,28.3,258.49,27,259c-.06.06-.09.09-.15.06h-.06v0a.16.16,0,0,0,.06-.12v0c-.23-10,6.2-15,14.12-18.86,1.89-.93,3.11-.52,3.78,1.49a14.8,14.8,0,0,0,.85,1.86c1,2,1.19,3.58-1.08,5.15-5.88,4.08-5.59,14.76,3.35,17.87a29.92,29.92,0,0,0,20.34-.12,13.51,13.51,0,0,0,5.38-3.61c3.35-3.55,4-7.56,2-12-2.56-5.47-7.16-9.13-11.73-12.77-7.33-5.82-15.19-11-22.17-17.26A50.54,50.54,0,0,1,30,206.11c-4.63-9.08-4.4-18.4-.24-27.53,4.75-10.42,12.95-17.61,22.91-22.91A77.52,77.52,0,0,1,83,147.09a68.28,68.28,0,0,1,22.18,1.6,28.58,28.58,0,0,1,5.73,2.12c12,5.76,16,16.68,10.48,28.81a40.91,40.91,0,0,1-11.79,14.9,66.7,66.7,0,0,1-27.27,13.19c-1.8.41-2.85.55-3.46-1.81-1.54-5.87-1.69-5.85,3.93-7.91,7.74-2.83,14.9-6.58,20.37-13,3.06-3.61,5.15-7.6,5.47-12.43.35-5.65-2.3-9.6-6.92-12.46a20,20,0,0,0-8.82-2.94c-11.85-.81-23.34.7-33.85,6.64-8.18,4.63-13.24,11.47-14.41,21-.67,5.5,1.52,10.07,4.52,14.38,3.57,5.21,8.49,9.14,13.35,13,5.74,4.57,11.59,9,17.12,13.79A58.92,58.92,0,0,1,87.32,234.43Z"/><path class="cls-1" d="M212.49,239.37a46.3,46.3,0,0,1-7.59,18.31c-.79,1.16-1.49,2.36-2.68,4.25l-.09-.09c-.9-1.22,0-2.65.73-3.78a65.51,65.51,0,0,0,5.94-11.12,41,41,0,0,0,2.47-19.24c-1.51-15-16.59-21.45-29.13-12.48-1,.7-1.86,1.6-2.88,2.27-2,1.28-3.76,1.54-3.73-1.6,0-2.33-1.28-2.56-3.11-2.68-8.91-.55-8.94-.58-11.73,8-1.92,5.82-4,11.59-5.82,17.41-3.64,11.58-12.22,18.62-22.29,24.21-2.48,1.4-5.42,2.42-8,.12s-1.8-5.18-.9-8c3.75-11.35,7.57-22.7,11.32-34.05,2.68-8.12,3.64-7.59-5.62-7.74-3.49-.06-5.12,1.43-6.17,4.57q-5.67,17.24-11.46,34.43c-.7,2-1.2,4.1-2.74,5.73l-.09.09-.61.35c.06-.35.15-.73.24-1.08q6.85-20.64,13.76-41.35c1.37-4.08,1.4-4.14,5.71-4.11,3.63,0,7.3-.35,10.91.23.41,1.58-.35,2.8-.76,4.05q-6.45,19.33-12.89,38.65a26.16,26.16,0,0,0-1.11,3.49c-.66,3.49,1.17,5.3,4.6,4.51a22.13,22.13,0,0,0,7.69-3.63,74.07,74.07,0,0,0,13.27-12.61,15.79,15.79,0,0,0,2.73-5.41q4.29-13,8.62-25.9c1.19-3.47,1.22-3.47,4.86-3.52,3.14,0,6.26-.09,9.37,0,2.47.06,2.59.29,2.07,2.62-.24,1-.91,2-.7,3.29,1.39-.5,2.09-1.72,3.08-2.51,5.27-4.07,10.95-6.37,17.78-5.21,5.85,1,9.84,4.34,12.61,9.32C213.69,225.55,213.63,232.48,212.49,239.37Z"/><path class="cls-1" d="M300.24,188.56a12.86,12.86,0,0,1,12.66-11.88c5.3.06,8.62,3.44,8.65,8.71a12.27,12.27,0,0,1-12.67,12.45A8.63,8.63,0,0,1,300.24,188.56Z"/><path class="cls-1" d="M472.5,244.64c-2,2.53-4.07,5.06-6.16,7.57-1.23,1.42-2.6,2.76-3.88,4.16,0,0-.08.09-.14.12a.51.51,0,0,1-.06-.15c-.44-1.11.52-2.27,1.37-3.29,2-2.41,4.19-4.63,6-7.16.76-1.07,2-2.33.61-3.58-1.6-1.48-2.7.06-3.66,1.17a59.76,59.76,0,0,1-20.67,14.87,34.79,34.79,0,0,1-18.3,2.79,13.29,13.29,0,0,1-8.94-4.42c-2.53-2.82-2.12-4.86,1.49-6.11a100.4,100.4,0,0,0,11.81-4.4c7.19-3.46,13.71-7.8,18.51-14.32a18.66,18.66,0,0,0,3.87-11c.12-6.72-4.22-11.26-10.94-11.73-13.74-1-24.16,5.07-32.42,15.4-4.57,5.67-8,12-9.26,19.29-.93,5.3-4.89,8.33-8.44,11.65a30.91,30.91,0,0,1-9.43,5.55c-2.21.94-4.56,1.4-6.6-.2-2.24-1.77-1.92-4.34-1.46-6.78a41,41,0,0,1,1.66-5.47q15.9-47.76,31.84-95.55c.29-.9.55-1.8.9-2.68.88-2.18.41-3.14-2.18-3.29-9.08-.46-9.08-.55-12,8.18-6.11,18.16-12.11,36.35-18.19,54.54-.35,1-.67,2.07-1.05,3.09-1.77,4.63-3.05,5-6.46,1.45-5.38-5.64-11.93-5.44-18.54-3.61-11.76,3.32-19.29,11.7-25,22A47.86,47.86,0,0,0,322.21,245c-1.65,7-13.21,16.94-20.31,17.61-3.73.32-6-1.84-5.79-5.56a24.6,24.6,0,0,1,1.57-6.32c3.73-11.38,7.68-22.67,11.58-34,1.66-4.8,1.4-5.06-3.61-5.12-1.07,0-2.18.09-3.26,0-3.11-.29-4.68,1.16-5.61,4-2.59,8.18-5.24,16.3-8.15,24.36-3,8.44-9.52,14.09-16.76,18.81-2.74,1.77-4.66.61-4.34-2.65.61-6.26-1.6-11.76-4-17.26-2.12-5-4.31-10-5.18-15.43-.67-4.33-.87-8.67.93-12.83,1-2.18.73-3.09-2-3.17-3.34-.09-5.58.9-7.36,3.9-6,10.15-12.37,20.14-19.06,29.89a57.21,57.21,0,0,1-22.09,19.44,22.64,22.64,0,0,1-2.59,1.22c-1.31.44-2.86,1.4-4,.09a58.8,58.8,0,0,0,17.9-10.71,58.2,58.2,0,0,0,9.6-11.06c6.93-10.25,13.65-20.61,19.88-31.29,1.28-2.21,2.74-3.08,5.18-2.94s5.12,0,8.38,0c-3.93,5.79-4.51,11.67-3.26,17.9a70,70,0,0,0,4.54,13.47c1,2.24,2,4.49,2.82,6.76,1.69,4.65,2.54,9.4,1,14.66,3.55-.9,5.71-3.23,8-5.12a61,61,0,0,0,8.84-9.54,12.72,12.72,0,0,0,1.84-4.08c2.94-8.73,5.85-17.52,8.79-26.25,1.19-3.58,1.22-3.58,4.8-3.64,3.11,0,6.26-.09,9.37,0,2.39.09,2.74.5,2,2.74-1.34,4.28-2.83,8.5-4.25,12.75q-4.85,14.27-9.64,28.57a17.76,17.76,0,0,0-.81,3.15c-.32,2.65,1.14,4.19,3.78,3.93a15.28,15.28,0,0,0,5.74-2,45.84,45.84,0,0,0,7.91-5.71,18.67,18.67,0,0,0,6.46-10.39,48.27,48.27,0,0,1,21.05-29.91,29.43,29.43,0,0,1,18.88-5.1c5.48.44,9.46,3,12.37,7.92,1.28-1.08,1.34-2.48,1.75-3.64q10.47-31.31,20.9-62.6c1.65-5,1.68-4.1,5.58-4.13a87.54,87.54,0,0,1,11,.14c.4,2-.59,3.58-1.14,5.21Q394.85,201.56,378,252a16.47,16.47,0,0,0-1.2,4.72c-.11,3,1.17,4.28,4.22,3.81a15,15,0,0,0,3.44-1.16c5.64-2.42,9.92-6.58,14.08-10.92,1.05-1.07,1.17-2.38,1.43-3.72a49.12,49.12,0,0,1,15.16-26.86c7.72-7.13,16.74-10.89,27.39-10.39,9.92.43,15.48,8,12.95,17.63-1.66,6.38-5.76,11-10.68,15a63,63,0,0,1-23.17,11.55c-1.16.32-2.33.7-3.72,1.11,1,3.26,3.32,5,6.08,6a23.3,23.3,0,0,0,14.06.55c11.35-2.71,20.6-8.88,28.14-17.7.82-1,1.19-2.91,2.85-2.33a8.9,8.9,0,0,1,4.16,3.18C473.79,243.33,473,244,472.5,244.64Z"/><path class="cls-1" d="M91.05,256.86a3.52,3.52,0,0,1,.55-.2,4.38,4.38,0,0,1-.23.58c-4.57,12.26-14.18,18.1-26.49,20.37A45.58,45.58,0,0,1,42,276.1a24.24,24.24,0,0,1-10.28-6.28c-2.85-3-4.74-6.47-4.86-10.74h-.06v0a.16.16,0,0,0,.06-.12A.66.66,0,0,1,27,259c1.42.78,1.57,2.36,2.06,3.64a18.59,18.59,0,0,0,9.08,10c14.64,7.62,35.28,4.68,46.08-6.58a27,27,0,0,0,4.19-6C89.07,258.84,89.65,257.48,91.05,256.86Z"/><path class="cls-1" d="M462.46,256.37s-.08.09-.14.12v0c-4.74,3.9-9.46,7.92-14.87,11-7.42,4.19-15.2,7.21-23.9,7-10.82-.23-18.74-4.8-22.67-15.28a7.48,7.48,0,0,0-.52-1.11,1.91,1.91,0,0,0-.41-.29,117.86,117.86,0,0,1-10.36,9.08c-5.33,3.87-10.94,7.05-17.61,8a14.46,14.46,0,0,1-5.24-.15,8.14,8.14,0,0,1-6.57-6.43,33.55,33.55,0,0,1-.64-4.19c-1.58.46-2.19,1.92-3.18,2.94-4.57,4.77-9.92,8-16.7,8.21-8.12.29-13.74-3.53-17.2-10.66a49.76,49.76,0,0,1-2-5.38c-1.34.23-1.95,1.37-2.79,2.12a67.12,67.12,0,0,1-14.35,10.66,31.53,31.53,0,0,1-11.56,3.69c-6.84.76-11-2.79-11.26-9.6-.06-1.75,0-3.49,0-5.47-1.51.14-2.24,1.39-3.2,2.21-7.45,6.34-15.69,11.15-25.5,12.83a36.32,36.32,0,0,1-11.35.12,23,23,0,0,1-16.06-10.1c-1.25-1.77-2.33-3.67-3.64-5.76l-3.2,2.12c-10.71,7.54-22.32,12.78-35.42,14.44a34.37,34.37,0,0,1-7.71.23c-6.41-.58-11.44-3.29-14-9.52-1.34.59-1.25,1.81-1.54,2.8q-7.61,23.4-15.14,46.8c-1.1,3.46-1.1,3.46-4.68,3.46s-7.08,0-10.6,0a9.41,9.41,0,0,1-1.36-.32q8.73-27.63,17.43-55.21c-.23-.44-.44-.87-1-1a72.92,72.92,0,0,1-12.66,9.4,32.13,32.13,0,0,1-12.6,4.13c-6.76.67-10.86-2.88-11.24-9.66a32.8,32.8,0,0,1,1.28-9.31c.06-.35.15-.73.24-1.08a2.07,2.07,0,0,1,.46.64c.76,1.22.23,2.62.06,4a29.74,29.74,0,0,0-.52,4.8c.2,6.49,3.69,9.66,10.15,9,6.84-.69,12.46-4.1,17.84-8.06,2.24-1.63,4-4.13,7.16-4.25h0v0a1.76,1.76,0,0,1,.76.38c.06,0,.09.09.14.15a1,1,0,0,1,.3.35,1.45,1.45,0,0,1,.17.26c.67,1.95-.17,3.72-.73,5.53C140,284.77,135,299.3,130.54,314c-1.34,4.4-1.22,4.57,3.35,4.63.4,0,.81,0,1.22,0,6.43,0,6.55.06,8.5-6.2,3.84-12.16,8-24.24,11.67-36.46.43-1.43.9-2.86,1.39-4.25,2.07-5.74,3.35-6,7.45-1.43a15.35,15.35,0,0,0,12,5.06c9.29.09,18-2.53,26.34-6.28a84.91,84.91,0,0,0,13.8-7.86c3.9-2.74,5.32-2.5,7.91,1.54,6.64,10.36,15.84,13.65,29,11.09,8.5-1.66,15.66-6,22.26-11.41,1.43-1.19,2.83-3,4.92-2,1.87.87,1.63,3,1.78,4.71.61,7.65,4,10.19,11.64,8.7a38.15,38.15,0,0,0,17-8.47c2.21-1.8,4.36-3.66,6.6-5.44s4-1.43,5.24,1.14c.29.58.58,1.22.88,1.83,5.87,12.05,18.42,14.61,28.72,5.85,1.43-1.22,2.68-2.71,4.19-3.84,2.62-1.95,3.67-1.63,4.8,1.37,2.59,6.86,5.18,8.35,12.4,6.75,7.8-1.75,14.15-6.11,20-11.32,1-.91,1.95-1.92,3-2.8,3.08-2.59,4.51-2.41,6.25,1.14,6,12.22,16.3,14.08,26.54,12.54s19-6.81,27.19-13.18c1.66-1.31,3.14-3.32,5.73-3C462.32,256.34,462.38,256.37,462.46,256.37Z"/><path class="cls-1" d="M473.17,242.49a8.9,8.9,0,0,0-4.16-3.18c-1.66-.58-2,1.37-2.85,2.33-7.54,8.82-16.79,15-28.14,17.7a23.3,23.3,0,0,1-14.06-.55c-2.76-1.05-5.12-2.77-6.08-6,1.39-.41,2.56-.79,3.72-1.11a63,63,0,0,0,23.17-11.55c4.92-4,9-8.61,10.68-15,2.53-9.63-3-17.2-12.95-17.63-10.65-.5-19.67,3.26-27.39,10.39A49.12,49.12,0,0,0,400,244.73c-.26,1.34-.38,2.65-1.43,3.72-4.16,4.34-8.44,8.5-14.08,10.92a15,15,0,0,1-3.44,1.16c-3.05.47-4.33-.76-4.22-3.81A16.47,16.47,0,0,1,378,252q16.84-50.42,33.64-100.87c.55-1.63,1.54-3.2,1.14-5.21a87.54,87.54,0,0,0-11-.14c-3.9,0-3.93-.88-5.58,4.13q-10.4,31.31-20.9,62.6c-.41,1.16-.47,2.56-1.75,3.64-2.91-4.89-6.89-7.48-12.37-7.92a29.43,29.43,0,0,0-18.88,5.1,48.27,48.27,0,0,0-21.05,29.91,18.67,18.67,0,0,1-6.46,10.39,45.84,45.84,0,0,1-7.91,5.71,15.28,15.28,0,0,1-5.74,2c-2.64.26-4.1-1.28-3.78-3.93a17.76,17.76,0,0,1,.81-3.15q4.81-14.31,9.64-28.57c1.42-4.25,2.91-8.47,4.25-12.75.7-2.24.35-2.65-2-2.74-3.11-.09-6.26,0-9.37,0-3.58.06-3.61.06-4.8,3.64-2.94,8.73-5.85,17.52-8.79,26.25a12.72,12.72,0,0,1-1.84,4.08,61,61,0,0,1-8.84,9.54c-2.33,1.89-4.49,4.22-8,5.12,1.52-5.26.67-10-1-14.66-.81-2.27-1.86-4.52-2.82-6.76A70,70,0,0,1,260,223.92c-1.25-6.23-.67-12.11,3.26-17.9-3.26,0-5.82.15-8.38,0s-3.9.73-5.18,2.94c-6.23,10.68-12.95,21-19.88,31.29a58.2,58.2,0,0,1-9.6,11.06A58.8,58.8,0,0,1,202.28,262s-.09,0-.12.05a.17.17,0,0,0,.06-.11c1.19-1.89,1.89-3.09,2.68-4.25a46.3,46.3,0,0,0,7.59-18.31c1.14-6.89,1.2-13.82-2.35-20.22-2.77-5-6.76-8.36-12.61-9.32C190.7,208.67,185,211,179.75,215c-1,.79-1.69,2-3.08,2.51-.21-1.34.46-2.27.7-3.29.52-2.33.4-2.56-2.07-2.62-3.11-.06-6.23,0-9.37,0-3.64.05-3.67.05-4.86,3.52q-4.32,13-8.62,25.9a15.79,15.79,0,0,1-2.73,5.41,74.07,74.07,0,0,1-13.27,12.61,22.13,22.13,0,0,1-7.69,3.63c-3.43.79-5.26-1-4.6-4.51a26.16,26.16,0,0,1,1.11-3.49q6.42-19.34,12.89-38.65c.41-1.25,1.17-2.47.76-4.05-3.61-.58-7.28-.2-10.91-.23-4.31,0-4.34,0-5.71,4.11q-6.9,20.69-13.76,41.35c-.09.35-.18.73-.24,1.08a32.8,32.8,0,0,0-1.28,9.31c.38,6.78,4.48,10.33,11.24,9.66a32.13,32.13,0,0,0,12.6-4.13,72.92,72.92,0,0,0,12.66-9.4,1.28,1.28,0,0,1,1,0c.06,0,.09.09.14.15a1.28,1.28,0,0,1-.11.81q-8.69,27.58-17.43,55.21a9.41,9.41,0,0,0,1.36.32c3.52,0,7.08,0,10.6,0s3.58,0,4.68-3.46q7.56-23.4,15.14-46.8c.29-1,.2-2.21,1.54-2.8,2.56,6.23,7.59,8.94,14,9.52a34.37,34.37,0,0,0,7.71-.23c13.1-1.66,24.71-6.9,35.42-14.44l3.2-2.12c1.31,2.09,2.39,4,3.64,5.76a23,23,0,0,0,16.06,10.1,36.32,36.32,0,0,0,11.35-.12c9.81-1.68,18-6.49,25.5-12.83,1-.82,1.69-2.07,3.2-2.21,0,2-.06,3.72,0,5.47.26,6.81,4.42,10.36,11.26,9.6a31.53,31.53,0,0,0,11.56-3.69,67.12,67.12,0,0,0,14.35-10.66c.84-.75,1.45-1.89,2.79-2.12a49.76,49.76,0,0,0,2,5.38c3.46,7.13,9.08,10.95,17.2,10.66,6.78-.24,12.13-3.44,16.7-8.21,1-1,1.6-2.48,3.18-2.94a33.55,33.55,0,0,0,.64,4.19,8.14,8.14,0,0,0,6.57,6.43,14.46,14.46,0,0,0,5.24.15c6.67-1,12.28-4.14,17.61-8A117.86,117.86,0,0,0,400,257.85a1.91,1.91,0,0,1,.41.29,7.48,7.48,0,0,1,.52,1.11c3.93,10.48,11.85,15.05,22.67,15.28,8.7.17,16.48-2.85,23.9-7,5.41-3.06,10.13-7.08,14.87-11v0c.06,0,.09-.09.14-.12,1.28-1.4,2.65-2.74,3.88-4.16,2.09-2.51,4.13-5,6.16-7.57C473,244,473.79,243.33,473.17,242.49ZM417,240.6c2.12-8.27,6.14-15.34,13.09-20.52a12.83,12.83,0,0,1,5.56-2.39,4.69,4.69,0,0,1,5.71,4.31,13.22,13.22,0,0,1-2.25,8.53c-2.93,4.8-7.33,7.94-12.31,10.27a32.4,32.4,0,0,1-9.43,3.17A3.56,3.56,0,0,1,417,240.6Zm-80,11.67a32.2,32.2,0,0,1,0-4.05c.56-10.33,4-19.32,12.55-25.79a16.84,16.84,0,0,1,10.27-3.37,10.14,10.14,0,0,1,9.84,6.58,5.21,5.21,0,0,1,.17,3.92c-2.27,6.55-4.25,13.19-6.69,19.68-2,5.38-9.9,11.93-16.45,11.58C341.25,260.53,337.61,257.59,336.91,252.27Zm-85.53,1.31c-1.49,5-5,7.71-10,8.23-4.88.53-9.1-.93-12.16-5-1.11-1.46-1.46-2.83-.12-4.4,5.82-6.84,10.36-14.61,15.46-22a4.44,4.44,0,0,1,2.27-2.16c.75,5.91,3.26,11,4.74,16.48A15.94,15.94,0,0,1,251.38,253.58ZM166,258.06a7.16,7.16,0,0,1-1-7.22c2.21-5.68,3.87-11.55,6-17.29,2.39-6.6,7.31-10.71,13.91-12.54,6.26-1.75,11.27,1.8,12.63,8.09,1.81,8.24-3.6,25-13.62,30.76a16.49,16.49,0,0,1-9.31,2.5A9,9,0,0,1,166,258.06Z"/><path class="cls-1" d="M121.4,179.62a40.91,40.91,0,0,1-11.79,14.9,66.7,66.7,0,0,1-27.27,13.19c-1.8.41-2.85.55-3.46-1.81-1.54-5.87-1.69-5.85,3.93-7.91,7.74-2.83,14.9-6.58,20.37-13,3.06-3.61,5.15-7.6,5.47-12.43.35-5.65-2.3-9.6-6.92-12.46a20,20,0,0,0-8.82-2.94c-11.85-.81-23.34.7-33.85,6.64-8.18,4.63-13.24,11.47-14.41,21-.67,5.5,1.52,10.07,4.52,14.38,3.57,5.21,8.49,9.14,13.35,13,5.74,4.57,11.59,9,17.12,13.79a58.92,58.92,0,0,1,7.68,8.42c5.12,6.66,6.69,14.08,4.28,22.23a4.38,4.38,0,0,1-.23.58c-4.57,12.26-14.18,18.1-26.49,20.37A45.58,45.58,0,0,1,42,276.1a24.24,24.24,0,0,1-10.28-6.28c-2.85-3-4.74-6.47-4.86-10.74v-.18c-.23-10,6.2-15,14.12-18.86,1.89-.93,3.11-.52,3.78,1.49a14.8,14.8,0,0,0,.85,1.86c1,2,1.19,3.58-1.08,5.15-5.88,4.08-5.59,14.76,3.35,17.87a29.92,29.92,0,0,0,20.34-.12,13.51,13.51,0,0,0,5.38-3.61c3.35-3.55,4-7.56,2-12-2.56-5.47-7.16-9.13-11.73-12.77-7.33-5.82-15.19-11-22.17-17.26A50.54,50.54,0,0,1,30,206.11c-4.63-9.08-4.4-18.4-.24-27.53,4.75-10.42,12.95-17.61,22.91-22.91A77.52,77.52,0,0,1,83,147.09a68.28,68.28,0,0,1,22.18,1.6,28.58,28.58,0,0,1,5.73,2.12C122.94,156.57,126.9,167.49,121.4,179.62Z"/><path class="cls-1" d="M321.55,185.39a12.27,12.27,0,0,1-12.67,12.45,8.63,8.63,0,0,1-8.64-9.28,12.86,12.86,0,0,1,12.66-11.88C318.2,176.74,321.52,180.12,321.55,185.39Z"/><path class="cls-1" d="M148.2,189.2c-1.28,5.85-6.43,10.24-12,10.27-5.94,0-9.64-4-9.06-9.95a12.45,12.45,0,0,1,12.69-11.24A8.75,8.75,0,0,1,148.2,189.2Z"/><path class="cls-1" d="M144.92,264.29c-.15.17-.3.32-.41.46-.23-.44-.44-.87-1-1a3.48,3.48,0,0,1,.2-.38v0c.32-.55.7-1,1.31-.55S145.29,263.79,144.92,264.29Z"/><path class="cls-1" d="M174,353a8.91,8.91,0,0,1-3.41-3.79,13.1,13.1,0,0,1-1.2-5.81h0a13,13,0,0,1,1.2-5.8,8.8,8.8,0,0,1,3.4-3.78,9.9,9.9,0,0,1,5.2-1.32,9.72,9.72,0,0,1,4.2.89,8.37,8.37,0,0,1,3.09,2.48,7.84,7.84,0,0,1,1.54,3.67l0,.15h-3.27l-.09-.29a5.43,5.43,0,0,0-1.09-2.14,4.91,4.91,0,0,0-1.86-1.37,6.32,6.32,0,0,0-2.54-.48,6,6,0,0,0-3.41,1,6.44,6.44,0,0,0-2.23,2.77,10.38,10.38,0,0,0-.79,4.24h0a10.45,10.45,0,0,0,.79,4.24,6.27,6.27,0,0,0,2.24,2.79,5.88,5.88,0,0,0,3.4,1,6.24,6.24,0,0,0,2.51-.47,5,5,0,0,0,1.88-1.4,6,6,0,0,0,1.16-2.26l0-.14H188l0,.14a7.89,7.89,0,0,1-1.53,3.7,8.14,8.14,0,0,1-3.08,2.47,9.78,9.78,0,0,1-4.22.88A9.92,9.92,0,0,1,174,353Z"/><path class="cls-1" d="M202.48,353a8.69,8.69,0,0,1-3.43-3.78,13.05,13.05,0,0,1-1.2-5.8v0a12.89,12.89,0,0,1,1.21-5.8,8.81,8.81,0,0,1,3.43-3.78,10.16,10.16,0,0,1,5.27-1.32,10,10,0,0,1,5.26,1.33,8.83,8.83,0,0,1,3.43,3.77,13,13,0,0,1,1.2,5.8v0a13.05,13.05,0,0,1-1.2,5.8A8.84,8.84,0,0,1,213,353a11.13,11.13,0,0,1-10.55,0Zm8.77-2.57a6.27,6.27,0,0,0,2.26-2.78,10.57,10.57,0,0,0,.79-4.23v0a10.46,10.46,0,0,0-.8-4.25,6.29,6.29,0,0,0-2.27-2.76,6.23,6.23,0,0,0-9.22,2.75,10.31,10.31,0,0,0-.81,4.26v0a10.25,10.25,0,0,0,.81,4.24,6.36,6.36,0,0,0,2.27,2.78,6.72,6.72,0,0,0,7,0Z"/><path class="cls-1" d="M230.19,332.84h13.2v2.84h-9.92v6.68h9.08v2.77h-9.08V354h-3.28Z"/><path class="cls-1" d="M259.23,332.84h13.2v2.84h-9.92v6.68h9.09v2.77h-9.09V354h-3.28Z"/><path class="cls-1" d="M288.16,332.84h13.42v2.84H291.44v6.15H301v2.76h-9.6v6.55h10.14V354H288.16Z"/><path class="cls-1" d="M317.2,332.84h13.42v2.84H320.48v6.15h9.6v2.76h-9.6v6.55h10.14V354H317.2Z"/></svg>