<svg id="Layer_1" data-name="Layer 1" xmlns="http://www.w3.org/2000/svg" viewBox="0 0 500 500"><defs><style>.cls-1{fill:#fff;}</style></defs><path class="cls-1" d="M386.32,111.8c-.13,6,.33,11.32.2,17.28-54.08,0-77.29,1.12-194.21,1.12-17,0-39.17,5.59-54.27,23.22-11.71,13.66-17.51,32.44-15.1,53.85,2.39,21.14,12.14,38.33,30.8,50.72,6.52-13.52,14.11-25.21,29.28-28.64s28,1,39.58,11.71c6.9-10.48,16-16.47,28.33-15.94,12,.51,20.93,7,28.21,16.7,7.75-9.39,15.24-17.39,27.61-17.34,23.93.06,47.83.21,71.74,0,5.8-.07,7.65,1.94,7.63,7.57q-.19,74.61,0,149.22c0,6.15-2.19,8-8.23,7.92-23.64-.28-47.28-.15-70.9-.1q-96.88.15-193.75.34V371.26c3.83-.18,7.65-.53,11.48-.53,61,0,122-.07,182.93.18a74.59,74.59,0,0,0,40-10.84c32.24-19.6,38.41-56.75,24.44-88.94-5.15-11.89-13.07-21.71-24.85-28.24-14.35,34.13-45.86,36.81-68.88,17-6.63,9.93-15.54,15.84-28,15.62s-20.8-7.07-28.27-16.46c-7.2,8.07-13.63,16.7-24.88,16.78-28,.18-56-.17-83.94-.3v-165q57,0,114.07.22C275.56,111,338.07,111.34,386.32,111.8Z"/><path class="cls-1" d="M341.23,322.33c-8.31,10-18.9,15.9-32.79,15.87-61-.14-121.92.23-182.86.38-4.13,0-8.23-.2-12.34-.32V306.92c25.78-.14,51.59-.35,77.39-.35,9.44,0,18.61-.12,26.68-6.27,1.38-1.05,4.73-.68,6.59.23,16.55,8.07,33.08,9.11,49.94,1,1.77-.86,4.54-1.3,6.16-.51,24,11.71,46.14,8.94,67.35-9.4C350.77,303.88,348.18,313.93,341.23,322.33Z"/><path class="cls-1" d="M363.41,194.26c-18.68,0-37.35.24-56,0-9.63-.12-18.62,1-25.95,8.36-18.48-10.72-36.48-12-55.07-3.1a7.87,7.87,0,0,1-6,0c-23.54-11.28-45.15-8.73-64.91,8.5a2.81,2.81,0,0,1-1.08.48,3.43,3.43,0,0,0-.38.13c-6.92-21,10.58-45.83,33.56-46,63.73-.35,127.46.08,191.19.1,5.13,0,7.16,1.73,7.47,7.11C387.69,194.24,387.86,194.22,363.41,194.26Z"/></svg>