<svg id="Layer_1" data-name="Layer 1" xmlns="http://www.w3.org/2000/svg" viewBox="0 0 500 500"><defs><style>.cls-1{fill:#fff;}</style></defs><path class="cls-1" d="M253,129.12l-155.66,200H402.68ZM154.26,293.41h-7.94v7.21h7.94V306h-7.75v7.75h7.75v5.94H120.75l33.51-42.87ZM189,321.16H160.38V262.79l18-18,.43,67.47L189,314.31Zm61-1.45H197.31v-31H224v-19.1L197.31,249.1V216.31l49.36-65.93v65.93l-21.26,4.33v8.46L250,244.77Zm42.06-81.78H276.93v15.49h15.13v22.7h-12.6V292h12.6v27.74H257.48V156.14l34.58,42.52Zm26.3,83.23h-16.2V216.31l16.2,21.62Zm33.7-15H340v13.51H329V251.44l27.92,36.39H340.71v11.53h11.35Z"/><path class="cls-1" d="M97.33,370V337.25h40.13v5.86H110v7.66h25.9v5.43H110v8h27.46V370Z"/><path class="cls-1" d="M150.81,370V337.25h12.67V364h27v6Z"/><path class="cls-1" d="M221.33,360.93h12.26q.42,2,3.87,3.2a27.55,27.55,0,0,0,8.82,1.19,23.67,23.67,0,0,0,8.12-1.18q3.15-1.17,3.15-3.05,0-1.57-2.43-2.55a33.14,33.14,0,0,0-8-1.62l-7.89-.9q-16.47-1.86-16.47-9.36,0-4.64,6.34-7.44t16.81-2.81q10,0,16.48,2.75t6.76,7.14h-12c-.31-1.31-1.49-2.35-3.54-3.14a26.12,26.12,0,0,0-15.33-.06c-1.92.74-2.88,1.74-2.88,3q0,1.53,2.34,2.46a32.35,32.35,0,0,0,7.68,1.55l7.3.85q9.15,1,13.31,3.26t4.17,6q0,5-6.59,7.8t-18,2.84q-10.85,0-17.39-2.68T221.33,360.93Z"/><path class="cls-1" d="M282.15,370V337.25h40.13v5.86H294.83v7.66h25.9v5.43h-25.9v8h27.45V370Z"/><path class="cls-1" d="M335.63,370V337.25h12.68V370Z"/><path class="cls-1" d="M363,370V337.25h39.67v5.86h-27v8.55h24.64v5.57H375.68V370Z"/></svg>