<svg id="Layer_1" data-name="Layer 1" xmlns="http://www.w3.org/2000/svg" viewBox="0 0 500 500"><defs><style>.cls-1{fill:#fff;}</style></defs><path id="path82" class="cls-1" d="M51.25,284.06a10.19,10.19,0,0,0,9.24,7A8.85,8.85,0,0,0,69.3,282c0-10-17.26-6.06-17.26-19.14,0-7.43,6.21-11,12.49-11,2.53,0,6.5.87,8.45,2.75v5c-1.37-3.75-4.33-6-7.43-6-3.62,0-7.08,2.17-7.37,7.44-.51,9.6,17.33,6.35,17.33,18.63,0,8.23-7.87,13.15-15,13.15-2.6,0-7.51-1.23-9.31-3.4-.08-2.38,0-5.34,0-5.34"/><path id="path84" class="cls-1" d="M347.86,274.16h16.32v-3.61H347.86Z"/><path id="path88" class="cls-1" d="M114.66,270.7v19.78c-.15.87-1.67,1.67-1.67,1.67h10.4s-1.58-.87-1.66-1.67V254.37c.08-.86,1.66-1.66,1.66-1.66H113s1.52.8,1.67,1.66v14.45c-2.89-.07-13.94-.07-16.76,0V254.37c.15-.93,1.66-1.66,1.66-1.66H89.23s1.59.87,1.67,1.66v36.11c-.08.8-1.67,1.67-1.67,1.67H99.56s-1.51-.8-1.66-1.67V270.7c4-.08,12.64-.08,16.76,0"/><path id="path92" class="cls-1" d="M330.31,269.76V254.37c.15-.93,1.66-1.66,1.66-1.66h-10.4s1.59.87,1.66,1.66v36.11c-.07.8-1.66,1.67-1.66,1.67H332s-1.51-.8-1.66-1.67"/><path id="path96" class="cls-1" d="M380.29,292.07s1.59-.86,1.66-1.66V254.3c-.07-.86-1.66-1.66-1.66-1.66h10.33s-1.52.8-1.67,1.66v36H389c3.17.14,8.23-.36,11.34-.29.93,0,2.6-.29,3.17-.94a8.53,8.53,0,0,1-.72,3.11c0-.08-20.8,0-22.53-.08"/><path id="path100" class="cls-1" d="M208.91,278.86c-1-1.23-22.1-26.22-22.1-26.22h-7.23A4.29,4.29,0,0,1,182,255v35.39c-.15.87-1.66,1.66-1.66,1.66h5.13s-1.59-.86-1.67-1.66c0-2.09.08-30.19.08-30.19s-.29-2,1.22,0c1.88,2.39,28,33.3,28,33.3s.08-37,.08-39.15c.07-.79,1.66-1.66,1.66-1.66h-7s1.52.8,1.66,1.66v24.49"/><path id="path104" class="cls-1" d="M144.05,277.63h11.77l-5.92-15Zm8.31-26.22S167.23,289,168,290.34a4.75,4.75,0,0,0,2.09,1.81H160c-.07-.15,1.3-.65.87-1.81-1-2.67-3.25-7.94-4.26-10.76H143.47c-.94,2.6-3.39,9.53-3.83,10.83s.58,1.52,1,1.74h-6.43s1.51-.58,1.73-1.74,15.24-39,15.24-39"/><path id="path108" class="cls-1" d="M422,277.63H433.8l-5.92-15Zm8.24-26.22s14.87,37.63,15.67,38.93a4.75,4.75,0,0,0,2.09,1.81H437.92c-.07-.15,1.3-.65.87-1.81-1-2.67-3.25-7.94-4.34-10.76H421.31c-.94,2.6-3.39,9.53-3.76,10.83s.58,1.52,1,1.74h-6.43s1.51-.58,1.73-1.74,15.24-39,15.24-39"/><path id="path112" class="cls-1" d="M258,288.82c-2.68,1.59-6.07,1.95-9.25,1.95-7,0-14.51-7.07-14.51-18.56,0-11.7,6.28-18.12,13.93-18.12,5.13,0,11.13,3,13.87,8.08,0,0,0-4.4-.07-6.35-2.89-1.23-6.65-3.54-13.58-3.54-11.63,0-21.09,6.72-21.09,20.22,0,11.7,8.24,20,20,20a41.26,41.26,0,0,0,14.73-2.24V277.56c.07-.8,1.66-1.66,1.66-1.66h-7.44s1.52.79,1.66,1.66"/><path id="path116" class="cls-1" d="M287.12,272.14a16.18,16.18,0,0,0,5.71-.29c4.11-1.15,5.7-4.33,5.7-8.88,0-4-2.09-7.87-6-8.6-3-.57-3.47-.5-5.42-.07Zm0,18.27c.07.87,1.66,1.66,1.66,1.66-1.73,0-5-.07-5.77,0s-2.89,0-4.63,0c0,0,1.59-.86,1.66-1.66V254.3c-.07-.86-1.66-1.66-1.66-1.66h11c8.09,0,14.23,3.83,14.23,9.68,0,6.72-6.36,9.75-7.95,10.47a20.14,20.14,0,0,1,4.48,4.55c2.17,3.11,3.83,6.28,4.84,8,3.54,5.77,5.42,6.35,5.42,6.35a11.71,11.71,0,0,1-6,.65c-4.69-1.08-9.24-16.75-12.56-17.91a24.27,24.27,0,0,0-4.7-.29"/><path id="path120" class="cls-1" d="M103.1,340.61v7.8h1.59v.5H99.13v-.5h1.44V333H99.13v-.5h5.56v.5H103.1v7.15h6.28V333H107.8v-.5h5.63v.5H112v15.46h1.45v.5h-5.56v-.5h1.59v-7.8"/><path id="path124" class="cls-1" d="M143,348.41h1.8V333h-1.51c-1.09,0-1.38.22-2.32,4.7h-.5v-5.28h11.27v5.28h-.51c-1-4.48-1.23-4.7-2.31-4.7h-1.52v15.46h1.81v.5H143"/><path id="path128" class="cls-1" d="M158.93,348.91v-.5h1.44V333h-1.44v-.5h12.13v5.27h-.5c-1.3-4.48-1.67-4.77-2.89-4.77H163v7.15h1.88c1.23,0,1.81-.72,2.24-3.32h.5v7.08h-.5c-.51-2.53-1.08-3.33-2.24-3.33H163v7.8h4.19c1.66,0,2.17-.65,3.61-5.56h.58v6.14"/><path id="path132" class="cls-1" d="M183.56,348.41h3.53c1.59,0,2-.29,3.47-6.07h.51V349H179.58v-.5H181V333h-1.45v-.5H186v.5h-2.38"/><path id="path136" class="cls-1" d="M198.65,342.77c1,4.41,1.88,6.07,4.19,6.07a3.62,3.62,0,0,0,3.9-3.47c0-4.69-8.88-2.89-8.88-8.52,0-2.82,2.16-4.69,5.41-4.69a11.35,11.35,0,0,1,4.48.94v4.76h-.51s-.21-.86-.86-2.74a3.09,3.09,0,0,0-3.32-2.46,3.33,3.33,0,0,0-3.62,3.18c0,1.81,1.23,2.24,4.48,3.47,3.54,1.3,4.77,2.24,4.77,4.84,0,3-2.53,5.27-6.21,5.27a9.84,9.84,0,0,1-4.41-1.3v-5.2"/><path id="path140" class="cls-1" d="M236.49,339.45h2.6l-.28,1.3h.07a3.93,3.93,0,0,1,3-1.59c1.44,0,2.38.72,1.95,2.75l-1.45,6.64h1l-.08.43h-3.82l.07-.43h1.08l1.45-6.86c.28-1.37,0-1.81-.94-1.81s-2.17.87-2.6,2.82l-1.23,5.85h1.08l-.07.43h-3.83l.07-.43h1l1.87-8.67h-1"/><path id="path144" class="cls-1" d="M251.08,348.84c1.23,0,2.24-1.44,2.89-4.48.72-3.32.22-4.69-1-4.69s-2,.86-2.82,4.69c-.72,3.4-.21,4.48.94,4.48m1.95.07.22-1.15h-.07a2.8,2.8,0,0,1-2.6,1.44c-1.74,0-3.11-1.8-2.39-5.05s2.68-5.06,4.55-5.06a1.74,1.74,0,0,1,1.81,1.44h.07l.87-4.11h-.87l.07-.44h2.68l-2.68,12.5h.87l-.07.43"/><path id="path148" class="cls-1" d="M228.41,343.64c-2.32,1-3.9.29-4.48,3-.29,1.45.14,1.95,1.08,1.95,1.37,0,2.67-1.44,3.11-3.47Zm-4.41-.79.65-3a8.1,8.1,0,0,1,3-.72c2.31,0,3.11,1.23,2.82,2.38l-1.44,7h.86l-.07.43h-2.53l.36-1.66h-.07a3.94,3.94,0,0,1-3.25,1.95c-1.66,0-2.6-.94-2.24-2.6.72-3.25,4.34-2.31,6.43-3.47l.43-1.95c.29-1.15-.29-1.66-1.3-1.66-1.3,0-1.8.65-3.25,3.25"/><path id="path152" class="cls-1" d="M127.37,348.77c2.67,0,3.9-1.88,3.9-8.09s-1.3-8.09-3.9-8.09-3.9,1.88-3.9,8.09,1.3,8.09,3.9,8.09m0-16.69c3.61,0,6.86,3.4,6.86,8.67s-3.25,8.6-6.86,8.6-6.86-3.4-6.86-8.6,3.25-8.67,6.86-8.67"/><path id="path156" class="cls-1" d="M275.28,340.17h1.37c2.82,0,4.19-1.37,4.19-3.75a3.21,3.21,0,0,0-3.47-3.47h-2.16v7.22Zm-4,8.74v-.5h1.44V333h-1.44v-.5h6.93c4,0,5.42,1.95,5.42,4,0,2.31-1.81,3.9-5.28,4.11l5.71,7.88h1.15v.5h-3.75l-6.07-8.38h-.07v7.88h1.81v.5"/><path id="path160" class="cls-1" d="M312.76,342.77c1,4.41,1.88,6.07,4.19,6.07a3.62,3.62,0,0,0,3.9-3.47c0-4.69-8.81-2.89-8.81-8.52,0-2.82,2.17-4.69,5.42-4.69a11.3,11.3,0,0,1,4.47.94v4.76h-.5l-.87-2.74a3.08,3.08,0,0,0-3.32-2.46,3.32,3.32,0,0,0-3.61,3.18c0,1.81,1.23,2.24,4.48,3.47,3.53,1.3,4.76,2.24,4.76,4.84,0,3-2.53,5.27-6.21,5.27a9.8,9.8,0,0,1-4.4-1.3v-5.2"/><path id="path164" class="cls-1" d="M336.74,348.84c2.67,0,3.9-1.88,3.9-8.09s-1.23-8.09-3.9-8.09-3.9,1.88-3.9,8.09,1.23,8.09,3.9,8.09m0-16.76c3.61,0,6.86,3.4,6.86,8.67s-3.25,8.6-6.86,8.6-6.86-3.4-6.86-8.6,3.25-8.67,6.86-8.67"/><path id="path168" class="cls-1" d="M354.29,340.17h1.37c2.82,0,4.26-1.37,4.26-3.75a3.2,3.2,0,0,0-3.46-3.47h-2.17Zm-4,8.74v-.5h1.44V333h-1.44v-.5h6.93c4,0,5.42,1.95,5.42,4,0,2.31-1.81,3.9-5.28,4.11l5.71,7.88h1.16v.5h-3.83l-6.07-8.38h-.07v7.88h1.8v.5"/><path id="path172" class="cls-1" d="M372.42,348.41h1.8V333h-1.51c-1.09,0-1.3.22-2.32,4.7h-.57v-5.28h11.34v5.28h-.51c-1-4.48-1.23-4.7-2.31-4.7h-1.52v15.46h1.81v.5h-6.14"/><path id="path176" class="cls-1" d="M389.24,342.77c1,4.41,1.95,6.07,4.26,6.07a3.62,3.62,0,0,0,3.9-3.47c0-4.69-8.81-2.89-8.81-8.52,0-2.82,2.17-4.69,5.42-4.69a11.35,11.35,0,0,1,4.48.94v4.76h-.58l-.87-2.74a3.08,3.08,0,0,0-3.32-2.46,3.32,3.32,0,0,0-3.61,3.18c0,1.81,1.23,2.24,4.48,3.47,3.54,1.3,4.76,2.24,4.76,4.84,0,3-2.52,5.27-6.21,5.27a9.8,9.8,0,0,1-4.4-1.3v-5.2"/><path id="path180" class="cls-1" d="M291.17,348.91v-.5h1.44V333h-1.44v-.5H303.3v5.27h-.58c-1.3-4.48-1.66-4.77-2.89-4.77h-4.69v7.15H297c1.15,0,1.73-.72,2.24-3.32h.5v7.08h-.5c-.51-2.53-1-3.33-2.24-3.33h-1.88v7.8h4.19c1.66,0,2.16-.65,3.61-5.56h.5v6.14"/><path id="path182" class="cls-1" d="M50.6,313.09H449.4v-1.44H50.6Z"/><path id="path186" class="cls-1" d="M271.81,193.35c-6.5,2.45-15.67,6.57-21,13.72a1.35,1.35,0,0,1-2.31-.07c-1.51-1.81-9.24-9.83-20.15-9.83a35.78,35.78,0,0,0-9.46,1.52v26.72a17.3,17.3,0,0,1,9-2.52c5.56,0,16.18,4.76,20.08,8.3,1.44,1.3,2.53,1.23,3.83,0,5.7-5.56,15.88-10.47,28.88-10.47V188.15H227.83c6.5-2.46,15.67-6.65,21-13.73a1.36,1.36,0,0,1,2.32.08c1.51,1.8,9.24,9.82,20.15,9.82a35.4,35.4,0,0,0,9.46-1.52V157.31a17.21,17.21,0,0,1-9,2.53c-5.56,0-16.18-4.77-20.08-8.31-1.44-1.3-2.6-1.23-3.83,0-5.77,5.56-16,10.47-29,10.47v31.35"/></svg>