<svg id="Layer_1" data-name="Layer 1" xmlns="http://www.w3.org/2000/svg" viewBox="0 0 500 500"><defs><style>.cls-1{fill:#fff;}</style></defs><path class="cls-1" d="M239.55,193.55c-6,7.26-7,15.54-2.4,23.75a82.17,82.17,0,0,0,11.53,16.21c10.74,11.36,13.17,24.19,8.53,38.71-3.84,12-11.22,21.82-20,30.67a4.76,4.76,0,0,1-3.18,1.24c3.3-4.46,6.73-8.84,9.87-13.41a33.84,33.84,0,0,0,3.9-7.5c4.25-11.77-1.16-19.86-13.72-20.38-6.15-.26-12.32.05-18.49.08-4,0-7.91,0-13,0,8.15-12.47,2-22.22-4-32C193.75,223,189,215,184.15,207c-13.05-21.78-11.65-41.7,4.38-63.47-1.31,5.81-3.49,11.71-3.74,17.68-.24,5.63.25,12,2.71,16.9,6.41,12.73,13.83,25,21.33,37.13,6.21,10.06,11.63,20,6.39,32.74h23.05c-2.47-3.24-4.42-6.2-6.76-8.82-9.54-10.66-10.47-22.2-3.7-34.54,5-9.06,11.47-16.75,20.65-21.82a17.81,17.81,0,0,1,17.33.41C255,182.48,246.18,185.58,239.55,193.55Z"/><path class="cls-1" d="M297.73,260.24c-1.53,2.32-3.2,4.55-4.81,6.83-7.88-5.83-9.69-11.14-11.93-31.89-1.35,2.32-3.73,4.58-3.88,7-1.13,17.92-9.7,32.66-19.51,46.84-3.84,5.55-8.41,10.6-12.64,15.87l-1-.9c4.63-6.45,10.06-12.48,13.67-19.46a120.54,120.54,0,0,0,9.15-24.57c2.28-8.68-1.65-16.28-6.94-23.08q-4-5.13-8-10.19c-8.82-11.1-8.28-21.29,1.42-31.66,2.66,5.56,4.87,11.57,8.25,16.84a59.8,59.8,0,0,0,10.87,12.22c3.47,3.07,8.05,4.6,12.39,1.42,4-3,3.3-7.32,2.21-11.45-2.86-10.78-10.39-18.83-16.42-27.75s-12.64-17.5-18.2-26.7-3-18.85,6.47-29c.19,15.06,9.87,25,17.23,36.07,5.7,8.59,11.33,17.24,16.7,26,4.61,7.55,4.94,15.65,2.24,24.05-.49,1.53-.31,4.22.69,5.14C307.09,232.39,305.48,248.56,297.73,260.24Z"/><path class="cls-1" d="M238,183.57c-6,9-12.88,17.28-19.43,25.84a22.87,22.87,0,0,1-3.2,2.77c-13.18-17.35-26.22-34.41-23.3-57.75a41.79,41.79,0,0,1,4.79-15c5-8.8,10.83-17.11,16.47-25.52,1.3-1.94,3.22-3.46,4.86-5.18l1.18.92c-2.36,3.68-4.71,7.37-7.09,11-9.73,15-13.8,31-5,47.56,5.1,9.57,12.09,18.12,18.37,27.33,10.41-11.72,12.16-22.32,4.85-31.73a92,92,0,0,1-6.36-10.15c-4.32-7.36-5-14.66.4-21.93,1.95-2.63,3.52-5.54,5.73-8.28-1.57,7.65,1.68,13.62,5.88,19.3C246,156,247.28,169.75,238,183.57Z"/><path class="cls-1" d="M321.8,231.1c-5.75,16.91-15.28,31.69-26.72,45.28,4.25-7.53,8.52-15.05,12.75-22.59,9.54-17,8.45-33.94.15-51.17-6.22-12.91-15.09-23.89-23.68-35.13a61.54,61.54,0,0,1-5.91-9.23c-5.21-10.13.28-18.06,5.83-26.17-.12,16,12.3,24.47,20.62,35.36,9.4,12.3,17,25.37,19.37,41.06A47.3,47.3,0,0,1,321.8,231.1Z"/><path class="cls-1" d="M240,282.5A10.31,10.31,0,0,1,229.1,293c-6.1-.09-10.29-4.29-10.37-10.39a10.27,10.27,0,0,1,10.51-10.82A10.56,10.56,0,0,1,240,282.5Z"/><path class="cls-1" d="M229.73,169.37a8.23,8.23,0,0,1-8.23,8.26,8.25,8.25,0,0,1,.44-16.49A8.38,8.38,0,0,1,229.73,169.37Z"/><path class="cls-1" d="M202.32,340.32c-.17-3.21,0-6.44,0-9.65,0-1.27.1-2.95-1.77-2.68-.64.09-1.47,1.65-1.53,2.57-.19,3.21-.09,6.43-.08,9.65,0,2.24-.37,4.07-3.24,4-2.7,0-4.28-1.42-4.4-4.19-.08-2,.09-4.06-.12-6.06-.07-.66-.95-1.24-1.46-1.85-.51.62-1.4,1.21-1.46,1.89-.21,2.18,0,4.41-.16,6.61s-1,3.69-3.58,3.58c-2.36-.1-3.55-1.31-3.63-3.61-.07-1.93.13-3.88-.12-5.78-.12-.95-1-1.78-1.54-2.67a8.86,8.86,0,0,0-1.35,2.55,29.3,29.3,0,0,0-.07,4.4c0,4.62-.61,5.2-5.31,5.24-3.22,0-6.44,0-9.66,0-5.33,0-10.66,0-16,0-4.23-.05-5.23-1.1-5.25-5.23,0-2,.07-4.05,0-6.06-.06-1.23.64-3.06-1.65-3.05S138,331.82,138,333.2c-.06,2.58-.06,5.15,0,7.72,0,2.3-1.08,3.4-3.36,3.39-3.21,0-6.43.09-9.65-.05-2.91-.12-4.1-1.45-4.17-4.37-.06-2.57.12-5.16-.11-7.71-.07-.78-1.14-1.47-1.76-2.21-.58.74-1.6,1.45-1.66,2.23-.21,2.93-.12,5.88-.09,8.82,0,2.18-1,3.25-3.16,3.27-2.66,0-5.33.06-8,.06-4.7,0-4.7,0-4.76-4.53,0-.46,0-.93-.06-1.38-.4-4.33-3-7.24-7.14-7.89s-7.71,1.22-9.12,5.38c-.83,2.42-.75,5.15-1.16,8.41-3.69,0-7.62.06-11.54,0-3.5-.06-4.15-.76-4.17-4.31,0-5.42,0-10.84,0-16.27,0-1.35,0-2.9-1.87-2.52a3.1,3.1,0,0,0-1.67,2.42c-.15,6.16-.13,12.32-.06,18.48,0,3.68,1.5,5.19,5.21,5.31,4.14.13,8.29-.11,12.41.13,2.4.13,4.75,1.12,7.15,1.3a45,45,0,0,0,7.51-.27c.86-.07,1.67-.95,2.52-1a90,90,0,0,1,12.4,0c4.11.44,7.9-1.22,12.21-.5,5.33.89,11.14,1.54,16.54-.81a2.55,2.55,0,0,1,1.29.11,36.4,36.4,0,0,0,5.86,1c8.92.12,17.84.07,26.76,0,1.35,0,2.71-.39,4.07-.51,1-.09,2.05,0,3.07-.06l7.86,0a13.58,13.58,0,0,1,3.19,0C198.59,348.46,202.7,347.29,202.32,340.32ZM92.65,346.09c-2.63,0-4.76-2.6-4.76-5.81s2.13-5.8,4.76-5.8,4.75,2.6,4.75,5.8S95.27,346.09,92.65,346.09Z"/><path class="cls-1" d="M439.21,323.73c0-1.32.07-2.73-1.85-2.69s-1.78,1.47-1.78,2.78c0,5.42,0,10.84,0,16.27,0,3.63-.5,4.16-4.15,4.18-7.72,0-15.44,0-23.17,0-4.24,0-4.24,0-4.23-4.29,0-6.46-4.77-10.72-10.59-9.43-4.71,1-7.59,5.65-6.85,11,.18,1.28.7,2.71-1.46,2.7-8.64,0-17.28,0-25.92-.09-2.66,0-3.86-1.56-3.93-4.31-.06-2.2,0-4.41,0-6.62-.05-1.35.49-3.31-1.83-3.27-2.12,0-1.62,1.87-1.63,3.14,0,5,0,9.93,0,14.89,0,4.54-.38,5-5,5.84.75,2.11,2.28,1.92,3.7,1.72,2.15-.3,3.86-1.21,4.31-3.6.29-1.51.18-3.72,1.11-4.33,1.1-.74,3.11-.07,4.73-.06,8.55,0,17.1-.05,25.65.06a13.34,13.34,0,0,1,4.71,1.07,10.87,10.87,0,0,0,8.29.12,16,16,0,0,1,5.24-1.19c9.65-.12,19.31,0,29-.08,4.35,0,5.76-1.53,5.78-5.89C439.24,335.68,439.21,329.71,439.21,323.73Zm-43.92,22.08c-2.57,0-4.66-2.69-4.66-6s2.09-6,4.66-6,4.66,2.69,4.66,6S397.87,345.81,395.29,345.81Z"/><path class="cls-1" d="M342.65,347.58c-12.6,0-25.19,0-37.78-.05-4.16,0-5.69-1.72-5.74-6-.05-5.88,0-11.76,0-17.65,0-1.28-.19-2.77,1.75-2.8s1.83,1.41,1.83,2.72c0,5.24,0,10.48,0,15.72,0,3.95.82,4.76,4.66,4.77,9.74,0,19.49-.06,29.23.06,2.38,0,2.82-.9,2.52-2.95-.83-5.61-3.23-8.81-7.57-9.13-2.08-.16-4.25.65-6.37,1l-.8-.31c.61-.76,1.05-1.88,1.83-2.22,7.75-3.32,15.8,1.62,16.57,10.06.25,2.75.28,2.8,2.88,3.72C345.91,346.75,344.79,347.58,342.65,347.58Z"/><path class="cls-1" d="M251.28,341.28c0,4.63-1.55,6.14-6.12,6.2-3.12,0-6.25,0-9.38,0a43.16,43.16,0,0,1-4.69,0c-3.32-.35-6.63-1.21-9.94-1.21s-6.62.81-9.93,1.23a7.34,7.34,0,0,1-1.93,0c-1.24-.16-3.18.55-3-1.61,0-.58,1.84-1.29,2.91-1.45a50.36,50.36,0,0,1,5.22-.1c3-.13,3.75-.83,3.77-3.84,0-5.62,0-11.22,0-16.83,0-1.18-.13-2.74,1.65-2.4.63.11,1.4,1.52,1.42,2.34.14,5.15.06,10.3.08,15.45,0,3.66,1.45,5.23,5.14,5.29,5.88.09,11.77.06,17.65,0,3.22,0,4-.89,4-4.22,0-5.42,0-10.85.09-16.27,0-.91.8-2.49,1.41-2.59,2-.31,1.64,1.47,1.64,2.67C251.32,329.7,251.33,335.49,251.28,341.28Z"/><path class="cls-1" d="M125.63,385.18c-3.59.57-4,.29-4.37-3.42-.32-3-.66-6.05-1-9.08l-1-.1q-3.12,6.14-6.23,12.26l-.93,0Q109,379,106,373.13c-.28,0-.56,0-.84.06-.48,3.91-1,7.81-1.49,12.09l-2.52.12c1.19-7.14,2.34-14,3.49-21l.79-.33,8.06,15.78,8-15.57.67,0Q123.85,374.77,125.63,385.18Z"/><path class="cls-1" d="M381.76,385c-3,.68-3.45.41-4-2.64-.55-3.21-1-6.43-1.5-9.64l-.74-.13-6.24,11.92-.95,0L362.1,373l-.88.28c-.46,3.84-.92,7.68-1.43,11.86l-2.22.2c1.16-7.12,2.28-13.93,3.39-20.76l.75-.19,8,15.82,7.9-15.93.69,0Q380,374.64,381.76,385Z"/><path class="cls-1" d="M294.42,334.74a81.12,81.12,0,0,1-.42,9.88c-1,6.71-6.18,10.79-13,10.58-6.35-.19-11.27-4.91-11.89-11.51-.16-1.64,0-3.3,0-4.95H269a35.33,35.33,0,0,1,.07-4.94c.1-.66,1-1.19,1.59-1.78.59.57,1.65,1.09,1.7,1.7.23,2.37-.15,4.81.23,7.14a25.12,25.12,0,0,0,2.31,8c2,3.61,5.15,4.57,8.93,3.6,3.23-.83,6.47-4.3,6.74-7.6s.1-6.8.37-10.18c.08-.93.89-2.42,1.58-2.55C294.37,331.81,294.46,333.43,294.42,334.74Z"/><path class="cls-1" d="M168.09,378.27c-1.48-1.62-2-2.83-.09-4.8,2.72-2.78,2-7.1-1.05-8.4-3.38-1.42-6.91-.89-10.47-.56v20.75h4.07c-.11-2.12-.32-4.1-.28-6.07,0-.8.64-2.26.91-2.24A4.57,4.57,0,0,1,164,378c1.22,1.22,2.07,2.79,3.17,4.13,1.82,2.19,3.88,4,7.14,3.16C172.16,382.88,170.17,380.53,168.09,378.27Zm-2-7q-.08.34-.18.69c-.06.18-.13.37-.21.56a9.55,9.55,0,0,1-.48,1c-.09.16-.19.32-.29.48a10.11,10.11,0,0,1-.61.9h0a.8.8,0,0,1-.13.13l-.17.11a2.93,2.93,0,0,1-.69.24,3.18,3.18,0,0,1-.55.07,3.72,3.72,0,0,1-1.43-.17l-.12-.07a.18.18,0,0,1-.09-.07l-.1-.1a1.17,1.17,0,0,1-.17-.26,4.53,4.53,0,0,1-.33-.86c0-.13-.07-.26-.1-.39s-.12-.5-.17-.72a4.83,4.83,0,0,1-.09-.94c0-.33,0-.66,0-1v0a1.62,1.62,0,0,0,0-.22,2.72,2.72,0,0,0,0-.28c0-.74,0-1.47,0-2.2a4.29,4.29,0,0,1,.1-.83.84.84,0,0,1,.06-.24,3.27,3.27,0,0,1,.18-.47.8.8,0,0,1,.08-.16l.15-.23.09-.1a1.4,1.4,0,0,1,.58-.42l.18-.06a1.43,1.43,0,0,1,.55,0,.83.83,0,0,1,.22,0,1.39,1.39,0,0,1,.33.1,2.64,2.64,0,0,1,.6.31l.1.06.11.08.25.2h0l.26.23a6.42,6.42,0,0,1,.88,1,4.5,4.5,0,0,1,.31.45,4.56,4.56,0,0,1,.41.75c.06.13.12.26.17.39h0a4.11,4.11,0,0,1,.28,1.15,3.11,3.11,0,0,1,0,.61A2,2,0,0,1,166.08,371.22Z"/><path class="cls-1" d="M227.69,364.34V385l-1,.39L212,371l-.87.21c.24,4.64.49,9.28.75,14.08h-2.48V364.37l1.16-.39,15.29,15.72V364.46Z"/><path class="cls-1" d="M276.31,384.9l-1.21.53-15.27-15V385.2l-2.19.11V364.45l.75-.26,15.13,15.13.65-.23c0-3.16,0-6.31,0-9.47,0-1.29-.23-2.58-.15-3.85,0-.43.71-.82,1.09-1.23.4.4,1.15.78,1.15,1.17C276.33,372.11,276.31,378.5,276.31,384.9Z"/><path class="cls-1" d="M425.11,366.54c0,5.22-.13,10.45-.24,15.68,0,1-.12,1.92-.18,2.88l-.88.49L409.9,370.31l-1,.74v14.07H406.7v-21L422,379.58l1-.47a12.66,12.66,0,0,0,.41-2.41c-.08-3.39-.32-6.78-.34-10.17,0-.66.7-1.32,1.08-2C424.5,365.21,425.11,365.87,425.11,366.54Z"/><path class="cls-1" d="M149.08,366.49c-.2,3.85-.09,7.72-.27,11.57a7.37,7.37,0,0,1-4.86,7.05,9.49,9.49,0,0,1-9.21-.75c-2.67-1.79-3.22-4.6-3.29-7.51-.1-4.1,0-8.21,0-12.6l3.89.22c0,5.06,0,9.82,0,14.58,0,2.74,1.59,4.22,3.89,5.09a4.6,4.6,0,0,0,5.64-1.73,10.2,10.2,0,0,0,1.46-5.11c.2-4.19.07-8.4.07-12.76C148,364,149.22,363.92,149.08,366.49Z"/><path class="cls-1" d="M195.51,364l-.85.07L186,385.2h3c1.14-6.42,2.3-7.45,5.43-7.33,2.46.1,3.8.78,4.46,3.36,1.15,4.58,1.81,4.84,5.54,3.93Q200,374.65,195.51,364Zm.85,11.1a.21.21,0,0,1,0,.1.24.24,0,0,1-.07.12,1.63,1.63,0,0,1-.33.38,1.94,1.94,0,0,1-.26.23,1.83,1.83,0,0,1-.36.26,1.22,1.22,0,0,1-.27.15,1.41,1.41,0,0,1-.47.19l-.2,0h-.11l-.11,0a3.49,3.49,0,0,1-1.33-.85,1.84,1.84,0,0,1-.23-.27l-.09-.13a.7.7,0,0,1-.1-.19v0a.43.43,0,0,1,0-.11v0a19.93,19.93,0,0,1,1.55-4.2l.94,0c0,.06,0,.13.08.19s.17.42.26.62.3.68.44,1,.21.53.31.79a4.72,4.72,0,0,1,.18.53,7.91,7.91,0,0,1,.25,1.07A.21.21,0,0,1,196.36,375.13Z"/><path class="cls-1" d="M63.32,364.21l-.81.05-8.46,20.82c1.67.44,2.63.38,3-1.78.79-4.67,1.64-5.16,4.72-5.54,4-.49,4.8,2.33,5.59,5s2.34,3.08,4.74,2.26C69.13,378,66.22,371.11,63.32,364.21Zm.73,11a3.28,3.28,0,0,1-.26.94c0,.06-.07.12-.11.17l-.06.07,0,0a.28.28,0,0,1-.11.08l-.25.1a4.37,4.37,0,0,1-2.34-.11h0l-.46-.14s0,0,0,0a4.73,4.73,0,0,1,.1-2.39,13.55,13.55,0,0,1,.5-1.34l.39-.87c.2-.44.41-.87.6-1.31l.91.21c.11.27.22.54.34.81s.3.69.43,1c.08.2.15.41.22.62a4.66,4.66,0,0,1,.19.84,4.49,4.49,0,0,1,0,.91C64.08,374.92,64.07,375.05,64.05,375.17Z"/><path class="cls-1" d="M316,384.14c0,1.54-2.26,1.87-10.65.89,0-6.28,0-12.58,0-18.88,0-.54.67-1.51,1.06-1.53,2.84-.14,5.68-.11,8.51,0,.32,0,.62.66,1.28,1.41a35.53,35.53,0,0,0-5.28-.18c-.69.09-1.44,1-1.81,1.72a5.19,5.19,0,0,0-.08,2.17c0,3.75,0,3.73,3.82,3.77,1.18,0,3.08-.67,2.45,1.42-2.29.25-5.52.1-5.67.7-.58,2.37-.91,5.35.12,7.35C310.38,384.08,313.78,383.78,316,384.14Z"/><path class="cls-1" d="M300.14,365q-4.49,10-9,20h-1.1l-8.54-20.12c2.53-.81,3.95-.79,4.79,2,1.24,4.17,3.11,8.16,5,12.83a18.64,18.64,0,0,0,1.47-2.31c1.6-3.81,3.09-7.66,4.74-11.44.32-.72,1.21-1.18,1.84-1.77Z"/><path class="cls-1" d="M399.74,384.12c0,1.56-2.74,2-10.41.88V365.1c3.38-1.28,9.15-.92,10.33,1-.88-.1-1.31-.12-1.73-.19-4.89-.77-5-.54-5.17,4.38-.09,2.73,1.05,3.3,3.41,3.19,1.16-.06,3.11-.77,2.95,1.31-2.23.35-5.52.18-5.81,1-.75,2.17-.89,5.25.2,7.09C394.2,384.12,397.5,383.77,399.74,384.12Z"/><path class="cls-1" d="M354.68,365.46c-.21.34-.41.68-.61,1-.43-.14-.84-.31-1.27-.42-4.8-1.27-5.67-.61-5.67,4.27v14.78h-3.51V369.47c0-3.81-.07-3.89-3.84-3.67a31.19,31.19,0,0,0-3.36.55c-.37-1.41-.21-2.21,1.6-2.16,4.77.13,9.55.1,14.32.25A7.13,7.13,0,0,1,354.68,365.46Z"/><path class="cls-1" d="M330.77,384.4a8.47,8.47,0,0,1-7.9.78c-.8-.3-1.09-1.94-1.6-3l.61-.28a17.12,17.12,0,0,0,2,1.75c1.9,1.29,3.87,1.35,5.48-.39s1.15-3.45-.26-4.95-2.88-2.54-4.27-3.86c-2.82-2.67-3.47-5.06-2.16-7.54,1.23-2.32,5-3.79,8-2.86.88.27,1.49,1.41,2.22,2.16l-.69.68c-.88-.57-1.72-1.51-2.66-1.62a5.16,5.16,0,0,0-3.66.77,3.4,3.4,0,0,0-.39,3.32c1.06,1.63,2.83,2.79,4.12,4.29s2.64,2.9,3.15,4.61C333.38,380.5,333.1,382.91,330.77,384.4Z"/><path class="cls-1" d="M448.9,365.74l-.46.65c-1.58-.22-3.16-.45-4.73-.65s-2.32.49-2.3,2.18c.06,5.68,0,11.35,0,17.23h-3.26c0-5.57-.1-11,0-16.34.06-2.43-.82-3.38-3.22-3.06a16.3,16.3,0,0,1-4.62,0c.57-.49,1.15-1.41,1.73-1.43q7.42-.09,14.85.16C447.61,364.47,448.25,365.29,448.9,365.74Z"/><path class="cls-1" d="M182.05,365.91c-.12,5.6,0,11.2-.16,16.8-.1,3.89-1.71,7-4.95,8.57a51.53,51.53,0,0,0,1.1-7c.14-6.06.07-12.12-.07-18.18,0-1.6.65-1.9,1.93-1.87S182.08,364.16,182.05,365.91Z"/><path class="cls-1" d="M447.47,345c0,.84-1.13,1.63-1.74,2.44-.52-.81-1.49-1.61-1.5-2.42q-.18-10.85,0-21.7c0-.78,1.06-1.54,1.63-2.3.56.76,1.57,1.5,1.6,2.29.18,3.65.08,7.32.08,11S447.67,341.48,447.47,345Z"/><path class="cls-1" d="M89.91,383.76c-.83.54-1.63,1.5-2.49,1.55-3.26.18-6.54.08-9.71.08V365.1c3.25-1.27,3.67-.89,3.54,2.32-.16,4-.16,8.07-.06,12.1s2.18,5.49,6.13,4.24a20,20,0,0,0,2-.83Z"/><path class="cls-1" d="M59.34,349.79c-.06,3.88-2.22,6-5.78,5.74a9.06,9.06,0,0,1-2.46-1c.09-.25.18-.49.26-.73,4.5-.65,5.1-1.34,5.13-6,0-5-.06-10.08.07-15.13,0-.9.81-1.77,1.24-2.66.52.89,1.48,1.78,1.51,2.69C59.44,338.42,59.44,344.11,59.34,349.79Z"/><path class="cls-1" d="M248.84,364.66v20.46h-3.57c0-6.36-.14-12.74.08-19.09C245.43,363.45,247.44,364.75,248.84,364.66Z"/><path class="cls-1" d="M212.81,331.75c0,2.76.12,5.53-.08,8.27,0,.8-1,1.54-1.59,2.31-.55-.79-1.57-1.58-1.59-2.39q-.21-8.26,0-16.54c0-.77,1.07-1.52,1.64-2.27.54.78,1.49,1.54,1.55,2.35C212.93,326.23,212.81,329,212.81,331.75Z"/><path class="cls-1" d="M123.43,327.37c-1,.32-2.31,1.16-2.7.84-1.3-1.06-2.14-.77-3.34.06a2.16,2.16,0,0,1-2.08-.46,3.39,3.39,0,0,1,.25-2.37,10.07,10.07,0,0,1,1.55-2.65,3.61,3.61,0,0,1,1.94-1.46c.51-.06,1.29.77,1.69,1.38C121.61,324,122.31,325.4,123.43,327.37Z"/><path class="cls-1" d="M208.54,352.87l3.35,1.65c-2,1.55-3.81,1.09-6.79.59a47.81,47.81,0,0,1,3.56-5.2c.32-.36,1.63.18,3.26.43Z"/><path class="cls-1" d="M283.22,328.64c-.1.76-1.19,1.4-1.85,2.09-.69-.69-1.82-1.32-1.94-2.09s.89-1.58,1.39-2.38h1.05C282.36,327.06,283.31,327.91,283.22,328.64Z"/><path class="cls-1" d="M335.51,352.36c-1.42,1-2.17,2-3,2-.61,0-1.86-1.16-1.8-1.68a3,3,0,0,1,1.67-2.2C333.1,350.36,334,351.4,335.51,352.36Z"/><path class="cls-1" d="M139.1,325.33c0,.63-1.17,1.67-2,1.82-.48.1-1.62-1-1.76-1.75s.68-1.51,1.45-3C138,323.8,139.08,324.55,139.1,325.33Z"/><path class="cls-1" d="M145.05,325.2c-1.27,1-2,2-2.68,1.95a2.63,2.63,0,0,1-1.78-1.87c0-.58,1.06-1.69,1.75-1.78S143.78,324.36,145.05,325.2Z"/><path class="cls-1" d="M162.2,365.52a1.65,1.65,0,0,0-.55,0A1.43,1.43,0,0,1,162.2,365.52Z"/><path class="cls-1" d="M163.56,366.09a2.32,2.32,0,0,1,.25.21l-.25-.2-.21-.14A1.2,1.2,0,0,1,163.56,366.09Z"/><path class="cls-1" d="M166.08,371.22a3.41,3.41,0,0,0,0-1,4.11,4.11,0,0,0-.28-1.15,3.83,3.83,0,0,1,.29,1.14A3.15,3.15,0,0,1,166.08,371.22Z"/><path class="cls-1" d="M193.92,370.73l.94,0h0l-.94,0Z"/><path class="cls-1" d="M196.38,375a7.91,7.91,0,0,0-.25-1.07A6.64,6.64,0,0,1,196.38,375Z"/><path class="cls-1" d="M62,370.37l.91.2h0Z"/><path class="cls-1" d="M64.09,374.8a4.49,4.49,0,0,0,0-.91,4.66,4.66,0,0,0-.19-.84c-.07-.21-.14-.42-.22-.62a6,6,0,0,1,.42,1.45A4,4,0,0,1,64.09,374.8Z"/></svg>