<svg id="Layer_1" data-name="Layer 1" xmlns="http://www.w3.org/2000/svg" viewBox="0 0 500 500"><defs><style>.cls-1{fill:#fff;}</style></defs><path class="cls-1" d="M256.58,362.54v37.38H246.8V373.53l-.29,0q-1.5,5.55-3,11.11c-1.28,4.74-2.58,9.48-3.81,14.23-.23.86-.53,1.23-1.49,1.19-2.41-.08-4.82,0-7.31,0-2.38-8.89-4.75-17.71-7.11-26.54l-.26,0V399.9h-8.94V362.45h12.49c2.2,0,3,.65,3.5,2.78q2.35,9.79,4.72,19.57c.09.32.2.64.4,1.26,1.69-6.13,3.3-11.95,4.92-17.77.35-1.27.69-2.54,1.06-3.8a2.35,2.35,0,0,1,2.1-1.94C248,362.49,252.26,362.54,256.58,362.54Z"/><polygon class="cls-1" points="172.99 362.54 172.99 399.95 163.1 399.95 163.1 385.31 148.23 385.31 148.23 399.94 138.64 399.94 138.64 362.55 148.17 362.55 148.17 376.99 163.09 376.99 163.09 362.54 172.99 362.54"/><polygon class="cls-1" points="308.44 370.6 308.44 377.03 322.77 377.03 322.77 385.2 308.5 385.2 308.5 391.81 327.81 391.81 327.81 399.95 298.84 399.95 298.84 362.55 327.83 362.55 327.83 370.6 308.44 370.6"/><polygon class="cls-1" points="188.95 370.58 188.95 377.04 203.26 377.04 203.26 385.2 188.98 385.2 188.98 391.84 208.28 391.84 208.28 399.91 179.22 399.91 179.22 362.54 208.28 362.54 208.28 370.58 188.95 370.58"/><path class="cls-1" d="M282.63,362.55c-6.07-.17-12.13-.08-18.19-.1h-1.62v37.47h9.68v-12c3.46,0,6.74.08,10,0a12.66,12.66,0,0,0,.11-25.31Zm3.22,12.84a4.47,4.47,0,0,1-4.08,4.29c-3,.09-6,0-9.2,0v-9c3.25,0,6.45-.14,9.63,0C284.35,370.9,286,373.21,285.85,375.39Z"/><polygon class="cls-1" points="361.36 391.85 361.36 399.93 333.94 399.93 333.94 362.54 343.5 362.54 343.5 391.85 361.36 391.85"/><path class="cls-1" d="M358.06,187c-10.38-41.91-36.74-70.22-78.31-82.11-41.85-12-79.25-1.75-110.62,28.43-35.33,34-37.43,79.46-19.19,114.65,13.78,26.57,36.52,42.92,64.09,52.7A91.56,91.56,0,0,0,271.21,302c39.73-11.63,63.38-51.1,54.21-89.78-11.57-48.82-66.07-68.83-104.93-38.42-14.8,11.61-22.19,26.65-19.1,45.79,3.49,21.7,21.77,37.51,44.17,38.38,21,.8,40.37-13.89,45.75-34.67a46.08,46.08,0,0,0-24.26-52.61c-1.8-.87-3.62-1.68-5.43-2.5a6.11,6.11,0,0,1,3.37-.59c15.77,1.61,29.06,8.24,39.26,20.39,23.51,28,18.87,68.68-10.26,92.49C275.31,295.7,253.8,299.35,230.63,296a84.86,84.86,0,0,1-71-100.88c10.74-54.71,67.58-84.33,120.5-62.87,35.38,14.35,58.69,51.54,57.26,89.74-1.21,32.38-14.48,58.49-41.49,76.68-24.52,16.51-51.64,17.62-79.44,10.6-8.2-2.06-16-5.84-23.55-8.69a15.1,15.1,0,0,0,1.15,1c21.86,17.23,46.62,23.75,74,19.47C332.33,311.08,373.65,249.91,358.06,187Zm-74.19,26A37.58,37.58,0,1,1,246.61,175,37.67,37.67,0,0,1,283.87,213Z"/><path class="cls-1" d="M299.43,262.73c-1.4,1.76-2.71,3.57-4.2,5.25-12.81,14.37-29,20.9-48.08,21.3-38.13.85-69.36-23.12-77.64-59.8-7.87-35,14.63-72.3,48.46-80.09,12.1-2.81,24.09-1.82,35.89,2.22a77.4,77.4,0,0,0-30.28,10.26c-17.33,10.43-29.63,24.75-33.83,45-5.71,27.68,8.18,56.24,33.79,69.71,24.64,13,53.2,8.1,73.34-12.5.63-.64,1.19-1.31,1.8-2Z"/></svg>